<svg xmlns="http://www.w3.org/2000/svg" width="16" height="16" viewBox="0 0 16 16" fill="none"><g clip-path="url(#clip0_6003_760)"><path d="M15.8099 8.14945C15.8099 7.49394 15.7567 7.01559 15.6416 6.51953H8.15625V9.47819H12.55C12.4614 10.2135 11.9831 11.3208 10.92 12.0648L10.9051 12.1639L13.2719 13.9973L13.4358 14.0137C14.9417 12.6229 15.8099 10.5766 15.8099 8.14945Z" fill="#4285F4"></path><path d="M8.15729 15.9449C10.3098 15.9449 12.1169 15.2362 13.4369 14.0138L10.9211 12.0649C10.2479 12.5344 9.34429 12.8622 8.15729 12.8622C6.04902 12.8622 4.25964 11.4715 3.62178 9.54919L3.52829 9.55713L1.06734 11.4617L1.03516 11.5511C2.34618 14.1555 5.03913 15.9449 8.15729 15.9449Z" fill="#34A853"></path><path d="M3.6206 9.54924C3.4523 9.05318 3.35489 8.52164 3.35489 7.97245C3.35489 7.4232 3.4523 6.89171 3.61175 6.39565L3.60729 6.29L1.1155 4.35486L1.03398 4.39364C0.49364 5.47437 0.183594 6.68799 0.183594 7.97245C0.183594 9.25691 0.49364 10.4705 1.03398 11.5512L3.6206 9.54924Z" fill="#FBBC05"></path><path d="M8.15729 3.08269C9.65433 3.08269 10.6642 3.72934 11.24 4.26974L13.49 2.07286C12.1081 0.788397 10.3098 0 8.15729 0C5.03913 0 2.34618 1.78937 1.03516 4.39371L3.61293 6.39573C4.25965 4.47347 6.04902 3.08269 8.15729 3.08269Z" fill="#EB4335"></path></g><defs><clipPath id="clip0_6003_760"><rect width="16" height="16" fill="white"></rect></clipPath></defs></svg>