<?xml version="1.0" standalone="no"?>
<svg xmlns="http://www.w3.org/2000/svg" 
     width="1931" height="540" 
     viewBox="0 0 1931 540">
  <defs>
    <linearGradient id="gold" x1="0.3" y1="0" x2="0.7" y2="1">
      <stop offset="0%" stop-color="#E8C84A"/>
      <stop offset="35%" stop-color="#D4A843"/>
      <stop offset="65%" stop-color="#B8862D"/>
      <stop offset="100%" stop-color="#8B6914"/>
    </linearGradient>
    <linearGradient id="dkgold" x1="0.3" y1="0" x2="0.7" y2="1">
      <stop offset="0%" stop-color="#8B7328"/>
      <stop offset="50%" stop-color="#6B5520"/>
      <stop offset="100%" stop-color="#4A3A15"/>
    </linearGradient>
  </defs>
  <rect width="1931" height="540" fill="#0D0D0D"/>
  <svg x="15" y="15.0" width="562.0" height="510.0" viewBox="0 0 562.0 510.0">
    <g transform="translate(0.000000,510.000000) scale(0.100000,-0.100000)"
fill="url(#gold)" stroke="none">

<path d="M2690 4963 c-24 -4 -125 -36 -165 -53 -11 -4 -36 -14 -55 -21 -42
-15 -210 -105 -300 -161 -136 -85 -356 -288 -462 -427 -65 -86 -208 -317 -208
-337 0 -4 -14 -36 -30 -71 -59 -125 -121 -342 -140 -495 -5 -46 -10 -104 -10
-130 0 -47 0 -47 -127 -111 -120 -59 -211 -111 -223 -126 -3 -4 -39 -29 -80
-56 -155 -101 -407 -382 -511 -570 -18 -33 -36 -61 -40 -63 -5 -2 -15 -27 -25
-55 -9 -29 -20 -56 -24 -62 -4 -5 -20 -48 -35 -95 -15 -47 -32 -94 -37 -105
-8 -19 -35 -132 -44 -185 -2 -14 -8 -83 -13 -154 -8 -122 -6 -173 19 -356 10
-73 53 -224 69 -245 5 -5 14 -28 21 -50 23 -72 128 -255 163 -283 11 -10 17
-9 27 3 10 12 7 34 -19 118 -118 376 -122 637 -19 1007 103 369 388 739 738
956 86 54 170 95 180 89 4 -3 14 -29 20 -57 26 -109 73 -236 119 -323 86 -160
92 -171 160 -255 67 -84 67 -84 59 -139 -24 -162 -27 -205 -27 -306 0 -110 3
-130 32 -277 36 -174 142 -424 243 -570 157 -227 430 -490 602 -578 23 -12 42
-24 42 -27 0 -15 -230 -87 -345 -109 -44 -8 -96 -19 -115 -24 -51 -13 -376
-20 -495 -10 -183 15 -240 28 -504 111 -111 35 -334 143 -420 203 -28 20 -55
36 -61 36 -5 0 -15 9 -22 20 -7 11 -17 20 -22 20 -4 0 -30 16 -56 35 -90 66
-102 37 -28 -65 41 -55 161 -177 219 -221 17 -13 43 -34 57 -45 121 -97 451
-246 627 -284 22 -4 78 -16 125 -26 71 -16 129 -19 350 -19 182 0 285 4 330
13 36 8 99 21 140 29 113 24 329 96 422 142 46 23 89 41 94 41 6 0 40 -13 75
-29 133 -59 315 -110 507 -141 94 -15 497 -16 582 -1 83 15 274 64 315 81 11
5 45 18 75 29 216 78 430 223 597 403 118 128 261 349 243 378 -11 18 -24 8
-145 -108 -156 -149 -272 -233 -471 -340 -53 -29 -163 -72 -299 -119 -100 -34
-234 -63 -395 -84 -99 -13 -415 -7 -505 10 -224 43 -330 71 -315 84 3 2 32 24
65 48 128 93 338 311 443 461 125 177 226 399 267 583 3 17 11 53 17 80 27
129 19 481 -14 567 -12 32 -1 54 67 128 50 54 110 143 157 230 35 66 98 220
98 240 0 5 4 18 9 28 5 9 15 44 21 77 7 33 16 74 21 90 4 17 11 55 14 85 10
86 7 84 92 33 129 -77 253 -176 364 -290 426 -437 605 -996 513 -1607 -8 -54
-17 -102 -20 -107 -8 -13 15 -49 31 -49 19 0 67 89 99 185 15 44 31 89 36 100
38 87 63 453 40 593 -30 193 -33 206 -81 357 -16 50 -29 97 -29 106 0 8 -16
33 -35 55 -19 21 -35 48 -35 59 0 18 -11 40 -79 160 -13 22 -36 52 -52 67 -16
15 -29 31 -29 36 0 21 -74 119 -112 150 -23 17 -54 50 -71 72 -16 23 -41 47
-56 54 -14 8 -59 44 -100 80 -80 72 -314 223 -373 241 -12 4 -40 16 -60 28
-33 18 -37 25 -43 71 -4 28 -13 85 -22 126 -8 41 -18 86 -20 100 -17 87 -132
365 -188 455 -14 22 -37 60 -50 85 -14 25 -42 66 -63 91 -20 25 -62 77 -94
116 -138 171 -410 378 -623 473 -154 69 -353 118 -369 91 -6 -9 100 -86 163
-121 99 -54 339 -249 486 -395 69 -70 188 -217 257 -320 102 -152 200 -379
246 -568 20 -80 18 -87 -25 -80 -21 3 -60 11 -88 19 -122 33 -462 46 -635 26
-182 -22 -404 -87 -558 -163 -83 -41 -83 -41 -200 -19 -218 39 -552 42 -742 5
-106 -20 -163 -33 -182 -40 -24 -10 -29 21 -18 111 28 223 118 476 236 659 19
30 34 57 34 61 0 3 34 51 76 106 41 55 78 106 81 114 2 7 12 16 22 19 9 3 25
19 35 35 40 69 349 326 521 435 18 11 46 29 63 40 17 11 45 28 61 37 19 10 31
25 31 38 0 20 -7 22 -60 13z m1039 -1658 c163 -29 238 -48 310 -77 53 -21 53
-21 47 -102 -14 -159 -36 -283 -70 -388 -46 -146 -151 -338 -176 -323 -5 3
-20 31 -35 62 -14 32 -38 73 -53 92 -15 20 -39 54 -53 76 -46 71 -185 218
-275 292 -132 107 -313 214 -482 284 -36 14 -18 26 66 45 42 9 91 23 109 31
18 7 52 13 75 13 24 0 50 5 58 10 8 5 89 10 179 10 131 0 190 -5 300 -25z
m-1419 -194 c0 -5 -21 -25 -47 -44 -116 -86 -342 -355 -386 -459 -35 -83 -60
-128 -71 -128 -13 0 -31 29 -92 151 -53 107 -78 180 -121 356 -9 38 12 46 258
103 104 25 459 40 459 21z m375 -35 c33 -10 76 -24 95 -31 19 -8 60 -21 90
-31 30 -9 60 -20 65 -24 6 -4 28 -13 50 -20 44 -14 238 -115 258 -134 6 -7 44
-36 83 -64 108 -78 235 -229 298 -354 29 -57 56 -118 59 -136 7 -34 -9 -82
-27 -82 -6 0 -46 -22 -88 -49 -235 -151 -445 -208 -725 -198 -201 8 -358 43
-521 118 -35 16 -65 29 -67 29 -10 0 -241 155 -252 170 -25 31 -10 87 63 237
59 120 90 166 195 293 119 142 317 309 354 296 6 -1 37 -11 70 -20z m-719
-1085 c5 -5 58 -34 118 -66 226 -118 489 -182 761 -184 119 -1 160 3 275 28
159 33 238 56 360 104 53 20 208 102 224 118 6 5 13 9 17 9 23 0 11 -261 -16
-370 -9 -36 -20 -81 -24 -100 -20 -84 -102 -260 -181 -385 -127 -204 -278
-366 -476 -512 -151 -111 -188 -126 -226 -90 -7 6 -37 27 -67 45 -303 185
-595 530 -702 830 -11 31 -24 66 -29 77 -11 26 -47 175 -60 249 -11 66 -14
239 -3 249 9 9 17 9 29 -2z"/>

    </g>
  </svg>
  <svg x="602.0" y="78.8" width="1313.6" height="382.5" viewBox="0 0 1202.0 350.0">
    <g transform="translate(0.000000,350.000000) scale(0.100000,-0.100000)"
fill="url(#gold)" stroke="none">

<path d="M497 3379 c-101 -16 -186 -81 -231 -178 -32 -71 -30 -197 5 -271 55
-114 151 -174 279 -174 128 0 224 57 282 167 19 35 23 58 23 142 0 85 -4 107
-24 148 -60 123 -190 188 -334 166z m120 -81 c54 -13 116 -70 140 -126 21 -50
21 -157 -1 -207 -21 -50 -71 -102 -115 -121 -49 -21 -144 -18 -190 6 -74 37
-121 121 -121 214 0 77 17 125 63 173 63 66 131 85 224 61z"/>
<path d="M5057 3379 c-103 -16 -157 -75 -157 -172 0 -55 3 -62 38 -97 29 -29
57 -44 123 -65 48 -14 100 -35 118 -46 58 -35 65 -96 16 -145 -20 -20 -34 -24
-82 -24 -68 0 -99 17 -119 66 -13 30 -18 34 -54 34 -21 0 -42 -4 -45 -10 -11
-18 32 -97 67 -124 97 -74 279 -48 330 47 21 40 27 91 17 131 -17 63 -54 91
-167 126 -55 17 -112 40 -125 50 -49 39 -39 117 18 144 66 32 134 16 166 -39
19 -32 25 -35 65 -35 47 0 50 4 33 47 -31 83 -131 129 -242 112z"/>
<path d="M6617 3380 c-102 -18 -187 -83 -230 -179 -30 -66 -30 -198 -1 -262
31 -67 87 -124 152 -156 48 -23 70 -28 137 -28 67 0 89 5 137 28 58 28 106 74
133 127 16 30 16 30 -37 30 -49 0 -55 -3 -75 -34 -45 -70 -164 -96 -256 -57
-75 32 -127 119 -127 213 0 138 72 227 198 244 70 9 128 -13 180 -71 35 -39
46 -45 81 -45 22 0 42 4 45 9 10 16 -58 104 -103 133 -69 44 -154 61 -234 48z"/>
<path d="M7629 3379 c-59 -9 -79 -20 -117 -63 -56 -63 -55 -155 2 -212 24 -24
57 -40 133 -63 129 -40 153 -58 153 -116 0 -60 -40 -95 -110 -95 -66 0 -97 16
-117 61 -17 36 -21 39 -60 39 -37 0 -43 -3 -43 -20 0 -35 39 -100 73 -120 45
-28 127 -44 179 -36 94 14 168 92 168 175 0 85 -40 126 -163 167 -136 45 -167
66 -167 115 0 41 15 66 50 84 60 31 137 12 166 -41 17 -31 23 -34 61 -34 38 0
43 2 43 24 0 35 -41 88 -85 112 -47 25 -102 33 -166 23z"/>
<path d="M9630 3379 c-102 -15 -189 -82 -234 -178 -16 -35 -21 -65 -21 -131 0
-66 5 -96 21 -131 48 -104 145 -173 260 -185 169 -18 321 115 327 284 2 57 2
57 -163 57 -165 0 -165 0 -168 -37 -3 -38 -3 -38 117 -38 110 0 121 -2 121
-18 0 -36 -46 -107 -88 -137 -40 -27 -51 -30 -118 -29 -98 1 -155 34 -197 114
-26 50 -28 62 -25 130 9 144 85 221 223 223 72 1 112 -18 156 -73 29 -35 37
-40 75 -40 24 0 45 4 48 9 3 4 -8 29 -24 53 -65 97 -184 146 -310 127z"/>
<path d="M1050 3071 c0 -311 0 -311 45 -311 45 0 45 0 45 126 0 125 0 125 47
122 47 -3 47 -3 118 -125 70 -123 70 -123 122 -123 52 0 52 0 -22 124 -41 68
-75 127 -75 130 0 3 6 6 13 6 8 0 32 13 54 29 106 76 94 242 -21 301 -45 22
-65 25 -188 28 l-138 4 0 -311z m252 229 c48 -14 78 -52 78 -101 0 -89 -40
-119 -159 -119 -81 0 -81 0 -81 115 0 115 0 115 63 115 34 0 79 -5 99 -10z"/>
<path d="M1757 3088 c-58 -161 -109 -301 -113 -311 -6 -16 -1 -18 41 -15 48 3
48 3 69 63 21 60 21 60 159 63 86 2 137 -1 137 -7 0 -6 9 -35 21 -66 20 -55
20 -55 66 -55 32 0 44 4 40 13 -2 6 -53 146 -112 310 -108 297 -108 297 -155
297 -47 0 -47 0 -153 -292z m206 30 c26 -73 47 -136 47 -140 0 -5 -45 -8 -100
-8 -55 0 -100 3 -100 7 0 15 95 273 100 273 4 0 27 -60 53 -132z"/>
<path d="M2360 3070 l0 -310 150 0 c150 0 150 0 150 35 0 35 0 35 -105 35
l-105 0 0 275 c0 275 0 275 -45 275 -45 0 -45 0 -45 -310z"/>
<path d="M3160 3070 c0 -310 0 -310 40 -310 40 0 40 0 40 123 l0 124 97 6
c152 10 220 54 230 150 8 67 -4 113 -38 152 -43 49 -105 65 -251 65 l-118 0 0
-310z m283 217 c35 -23 53 -79 38 -126 -16 -55 -51 -71 -155 -71 -86 0 -86 0
-86 111 l0 111 89 -4 c60 -3 97 -9 114 -21z"/>
<path d="M3760 3070 l0 -310 150 0 c150 0 150 0 150 35 0 35 0 35 -110 35
l-110 0 0 275 c0 275 0 275 -40 275 -40 0 -40 0 -40 -310z"/>
<path d="M4306 3083 c-60 -164 -111 -304 -113 -310 -4 -9 8 -13 40 -13 45 0
45 0 69 63 24 62 24 62 161 65 86 2 137 -1 137 -7 0 -6 9 -35 21 -66 20 -55
20 -55 66 -55 32 0 44 4 40 13 -2 6 -53 146 -112 310 -107 297 -107 297 -154
297 -47 0 -47 0 -155 -297z m207 34 c26 -73 47 -136 47 -140 0 -4 -45 -7 -100
-7 -55 0 -100 3 -100 7 0 15 94 273 100 273 3 0 27 -60 53 -133z"/>
<path d="M5480 3345 c0 -35 0 -35 85 -35 l85 0 0 -275 c0 -275 0 -275 43 -275
42 0 42 0 42 272 l0 273 83 3 c82 3 82 3 82 37 0 35 0 35 -210 35 -210 0 -210
0 -210 -35z"/>
<path d="M6080 3070 c0 -310 0 -310 45 -310 45 0 45 0 45 310 0 310 0 310 -45
310 -45 0 -45 0 -45 -310z"/>
<path d="M8090 3159 c0 -145 4 -236 12 -262 45 -149 277 -196 393 -79 54 54
59 78 63 330 4 232 4 232 -42 232 -46 0 -46 0 -46 -220 0 -247 -6 -275 -62
-310 -26 -17 -45 -20 -96 -18 -54 4 -67 8 -94 35 -41 41 -48 92 -47 323 1 185
1 185 -40 188 -41 3 -41 3 -41 -219z"/>
<path d="M8777 3374 c-4 -4 -7 -144 -7 -311 1 -303 1 -303 46 -303 44 0 44 0
44 125 0 125 0 125 48 125 47 -1 47 -1 120 -125 72 -125 72 -125 123 -125 51
0 51 0 31 33 -85 141 -132 220 -130 221 2 1 19 9 40 18 20 9 49 34 65 54 25
33 28 46 28 108 0 84 -22 124 -88 158 -35 18 -64 22 -177 26 -74 2 -138 1
-143 -4z m246 -75 c54 -15 77 -44 77 -97 0 -94 -35 -121 -152 -122 -88 0 -88
0 -88 115 0 115 0 115 63 115 34 0 79 -5 100 -11z"/>
<path d="M10180 3070 l0 -310 168 0 c167 0 167 0 166 32 -1 33 -1 33 -127 36
l-127 3 0 99 0 99 113 3 c112 3 112 3 115 41 3 37 3 37 -112 37 l-116 0 0 100
0 100 129 0 c127 0 128 0 126 23 -1 12 -3 28 -4 35 -1 9 -41 12 -166 12 l-165
0 0 -310z"/>
<path d="M10720 3070 c0 -310 0 -310 40 -310 40 0 40 0 40 125 0 125 0 125 48
125 47 0 47 0 120 -125 74 -125 74 -125 123 -125 27 0 49 2 49 5 0 2 -33 59
-74 127 -74 123 -74 123 -43 136 71 30 110 90 109 168 0 62 -20 104 -65 138
-45 34 -102 45 -234 46 l-113 0 0 -310z m283 216 c57 -38 57 -141 0 -185 -21
-18 -40 -21 -114 -21 l-89 0 0 116 0 117 88 -5 c60 -4 97 -11 115 -22z"/>
<path d="M11300 3368 c0 -6 43 -92 95 -190 95 -179 95 -179 95 -299 0 -119 0
-119 45 -119 45 0 45 0 45 116 0 117 0 117 91 293 50 97 95 180 100 186 18 19
8 25 -39 25 -48 0 -48 0 -117 -145 -37 -80 -72 -148 -76 -151 -5 -2 -41 63
-80 146 -72 150 -72 150 -116 150 -26 0 -43 -5 -43 -12z"/>
<path d="M1088 2150 c-102 -17 -184 -84 -230 -187 -30 -66 -31 -188 -1 -255
30 -66 94 -132 156 -159 79 -35 193 -33 269 4 177 87 228 318 107 489 -56 78
-191 126 -301 108z m130 -85 c157 -47 203 -282 79 -406 -89 -90 -257 -76 -327
26 -95 138 -42 335 101 380 58 18 85 18 147 0z"/>
<path d="M9880 2150 c-103 -17 -189 -83 -234 -179 -30 -67 -30 -197 2 -266 30
-66 93 -128 156 -156 79 -35 192 -33 269 6 63 31 104 72 139 138 19 35 23 58
23 142 0 85 -4 107 -24 148 -60 122 -194 189 -331 167z m158 -98 c106 -54 151
-219 91 -335 -19 -37 -72 -88 -108 -103 -47 -20 -138 -17 -188 5 -46 21 -95
81 -114 138 -15 46 -7 159 14 199 23 45 75 91 121 108 51 19 134 14 184 -12z"/>
<path d="M150 1840 c0 -310 0 -310 45 -310 45 0 45 0 47 236 l3 236 155 -236
c155 -236 155 -236 198 -236 42 0 42 0 42 310 0 310 0 310 -40 310 -40 0 -40
0 -42 -241 l-3 -240 -159 240 c-158 241 -158 241 -202 241 -44 0 -44 0 -44
-310z"/>
<path d="M1646 2142 c-3 -5 -5 -145 -5 -311 2 -301 2 -301 45 -301 44 0 44 0
44 125 0 125 0 125 48 125 47 0 47 0 116 -121 38 -67 75 -123 82 -126 6 -2 30
-3 53 -1 40 3 40 3 -34 127 -41 69 -74 125 -72 126 95 41 128 81 135 161 7 86
-21 139 -93 177 -33 17 -63 22 -176 25 -84 3 -139 0 -143 -6z m236 -68 c55 -9
88 -47 88 -100 0 -95 -37 -124 -160 -124 -80 0 -80 0 -80 115 0 115 0 115 58
115 31 0 74 -3 94 -6z"/>
<path d="M2270 1840 l0 -310 133 0 c181 0 254 23 321 101 52 61 69 123 64 228
-3 73 -9 95 -31 134 -71 120 -159 157 -379 157 l-108 0 0 -310z m314 214 c41
-21 75 -53 92 -87 41 -77 35 -210 -11 -277 -43 -62 -95 -84 -207 -88 l-98 -4
0 242 0 243 96 -7 c55 -4 110 -13 128 -22z"/>
<path d="M2980 1840 l0 -310 150 0 c150 0 150 0 150 35 0 35 0 35 -105 35
l-105 0 0 275 c0 275 0 275 -45 275 -45 0 -45 0 -45 -310z"/>
<path d="M3635 2138 c-3 -7 -54 -147 -113 -310 -109 -298 -109 -298 -63 -298
46 0 46 0 69 65 24 65 24 65 157 65 134 0 134 0 154 -55 12 -31 21 -60 21 -65
0 -6 22 -10 48 -10 49 0 49 0 -63 308 -111 307 -111 307 -158 310 -32 2 -49
-1 -52 -10z m104 -253 c28 -76 51 -141 51 -142 0 -2 -48 -3 -106 -3 -58 0
-104 4 -102 8 2 4 25 70 52 145 27 76 50 136 52 135 1 -2 25 -66 53 -143z"/>
<path d="M4140 1840 c0 -310 0 -310 43 -310 42 0 42 0 39 242 l-2 243 160
-242 c161 -243 161 -243 205 -243 45 0 45 0 45 310 0 310 0 310 -45 310 -45 0
-45 0 -47 -237 l-3 -237 -155 237 c-155 236 -155 236 -197 237 -43 0 -43 0
-43 -310z"/>
<path d="M4847 2143 c-4 -6 -6 -146 -5 -313 l1 -302 151 4 c140 3 155 5 210
30 80 38 122 87 148 172 35 116 9 247 -64 323 -16 17 -58 44 -92 59 -55 25
-75 28 -202 32 -88 3 -144 1 -147 -5z m323 -96 c63 -32 101 -96 107 -181 8
-91 -11 -150 -62 -201 -49 -49 -100 -65 -209 -65 l-76 0 0 242 0 241 97 -6
c74 -5 109 -13 143 -30z"/>
<path d="M7130 1840 c0 -310 0 -310 45 -310 45 0 45 0 45 140 l0 140 155 0
155 0 0 -140 c0 -140 0 -140 40 -140 40 0 40 0 40 310 0 310 0 310 -40 310
-40 0 -40 0 -40 -135 l0 -135 -155 0 -155 0 0 135 c0 135 0 135 -45 135 -45 0
-45 0 -45 -310z"/>
<path d="M7830 1937 c0 -246 9 -296 65 -352 100 -99 297 -78 370 40 30 48 30
48 33 287 3 239 3 239 -40 236 -43 -3 -43 -3 -48 -239 -5 -219 -7 -239 -25
-259 -48 -53 -142 -67 -203 -30 -56 35 -62 63 -62 310 0 220 0 220 -45 220
-45 0 -45 0 -45 -213z"/>
<path d="M8480 2115 c0 -35 0 -35 85 -35 l85 0 0 -275 c0 -275 0 -275 43 -275
42 0 42 0 39 275 l-3 275 86 0 c85 0 85 0 85 35 0 35 0 35 -210 35 -210 0
-210 0 -210 -35z"/>
<path d="M9047 2143 c-4 -3 -7 -19 -7 -35 0 -28 0 -28 85 -28 l85 0 0 -275 c0
-275 0 -275 45 -275 45 0 45 0 45 275 l0 275 85 0 c85 0 85 0 85 35 0 35 0 35
-208 35 -115 0 -212 -3 -215 -7z"/>
<path d="M10430 1840 c0 -310 0 -310 45 -310 45 0 45 0 47 237 l3 236 155
-236 c155 -237 155 -237 198 -237 42 0 42 0 42 310 0 310 0 310 -40 310 -40 0
-40 0 -42 -240 l-3 -240 -159 240 c-158 240 -158 240 -202 240 -44 0 -44 0
-44 -310z"/>
<path d="M6213 1880 c-42 -17 -42 -78 1 -98 34 -15 70 5 74 43 1 17 -1 35 -5
41 -12 17 -45 24 -70 14z"/>
<path d="M11798 1879 c-31 -18 -41 -48 -24 -73 23 -35 54 -39 83 -10 23 23 25
55 4 75 -13 14 -47 18 -63 8z"/>
<path d="M4634 920 c-149 -29 -243 -138 -252 -291 -8 -142 47 -243 165 -301
58 -28 77 -33 143 -33 143 0 259 83 296 213 23 78 15 182 -19 248 -60 118
-203 189 -333 164z m174 -107 c67 -41 102 -112 102 -204 0 -78 -13 -118 -56
-168 -38 -46 -96 -71 -165 -71 -73 0 -119 20 -163 71 -48 57 -59 96 -54 190 7
111 48 169 146 205 55 21 135 11 190 -23z"/>
<path d="M3940 610 l0 -310 150 0 c150 0 150 0 150 35 0 35 0 35 -110 35
l-110 0 0 275 c0 275 0 275 -40 275 -40 0 -40 0 -40 -310z"/>
<path d="M5190 610 c0 -310 0 -310 45 -310 45 0 45 0 45 135 l0 135 88 1 c48
1 95 1 105 0 14 -2 17 6 17 38 0 41 0 41 -105 41 l-105 0 0 100 0 100 130 0
c130 0 130 0 130 35 0 35 0 35 -175 35 l-175 0 0 -310z"/>
<path d="M5686 911 c-3 -5 -5 -21 -4 -35 2 -26 3 -26 85 -26 l83 0 0 -275 c0
-275 0 -275 45 -275 45 0 45 0 45 275 l0 275 85 0 c85 0 85 0 85 35 0 35 0 35
-209 35 -116 0 -212 -4 -215 -9z"/>
<path d="M6290 611 c0 -311 0 -311 45 -311 45 0 45 0 45 140 l0 140 150 0 150
0 0 -140 c0 -140 0 -140 45 -140 45 0 45 0 45 311 0 310 0 310 -42 307 -43 -3
-43 -3 -46 -135 l-3 -133 -149 0 -149 0 -3 133 c-3 132 -3 132 -45 135 -43 3
-43 3 -43 -307z"/>
<path d="M6990 692 c0 -228 0 -228 28 -283 32 -64 72 -93 149 -110 98 -22 203
14 250 86 37 56 43 103 43 323 0 212 0 212 -45 212 -45 0 -45 0 -45 -220 0
-169 -3 -229 -14 -255 -41 -97 -202 -102 -263 -8 -16 24 -18 55 -21 253 -2
225 -2 225 -42 228 -40 3 -40 3 -40 -226z"/>
<path d="M7770 909 c-71 -28 -118 -113 -105 -190 11 -67 54 -101 174 -138 120
-38 151 -62 151 -116 0 -27 -8 -44 -29 -66 -26 -25 -37 -29 -86 -29 -51 0 -60
3 -91 34 -19 19 -34 41 -34 50 0 12 -10 16 -45 16 -40 0 -45 -2 -45 -22 1 -73
85 -142 186 -154 125 -15 234 69 234 181 0 82 -43 121 -181 167 -112 36 -149
64 -149 109 0 41 15 66 52 85 61 32 155 0 174 -58 4 -14 15 -18 50 -18 38 0
44 3 44 20 0 38 -30 81 -78 111 -41 26 -54 29 -121 28 -42 0 -87 -5 -101 -10z"/>

    </g>
  </svg>
</svg>