<svg xmlns="http://www.w3.org/2000/svg" width="175" height="33" viewBox="0 0 175 33" fill="none"><path d="M55.2573 15.8469C54.3344 15.8469 53.5464 15.6554 52.8934 15.2722C52.2403 14.8804 51.7397 14.3406 51.3914 13.6527C51.0518 12.9562 50.882 12.1595 50.882 11.2627C50.882 10.2265 51.0692 9.34276 51.4436 8.61137C51.818 7.87998 52.3448 7.31838 53.024 6.92657C53.7118 6.53475 54.5172 6.33884 55.4402 6.33884C56.3022 6.33884 57.0553 6.52169 57.6996 6.88738C58.344 7.24437 58.8446 7.76244 59.2016 8.44159C59.5673 9.12073 59.7501 9.92613 59.7501 10.8578C59.7501 11.5805 59.6457 12.2466 59.4367 12.856C59.2364 13.4655 58.9404 13.9967 58.5486 14.4494C58.1655 14.8935 57.6953 15.2374 57.138 15.4812C56.5895 15.725 55.9626 15.8469 55.2573 15.8469ZM55.414 14.7237C55.8059 14.7237 56.1498 14.654 56.4458 14.5147C56.7419 14.3667 56.9857 14.149 57.1772 13.8617C57.3775 13.5657 57.5298 13.1869 57.6343 12.7254C57.7388 12.264 57.7911 11.7241 57.7911 11.1059C57.7911 10.5052 57.7345 9.97838 57.6213 9.52561C57.5081 9.06414 57.3426 8.68103 57.125 8.37628C56.9073 8.06283 56.6417 7.82774 56.3283 7.67102C56.0148 7.50558 55.6535 7.42287 55.2443 7.42287C54.8524 7.42287 54.5042 7.49688 54.1994 7.64489C53.9034 7.79291 53.6509 8.01494 53.4419 8.31098C53.2329 8.60702 53.0719 8.97707 52.9587 9.42113C52.8542 9.86519 52.8019 10.392 52.8019 11.0015C52.8019 11.5935 52.8585 12.1203 52.9717 12.5818C53.0936 13.0345 53.2678 13.422 53.4941 13.7442C53.7205 14.0663 53.9948 14.3101 54.317 14.4756C54.6391 14.641 55.0048 14.7237 55.414 14.7237ZM60.6974 15.6641V14.8674L61.259 14.7629C61.3983 14.7368 61.4898 14.6802 61.5333 14.5931C61.5768 14.506 61.5986 14.3493 61.5986 14.1229V10.8055C61.5986 10.5008 61.5725 10.2962 61.5202 10.1917C61.4767 10.0872 61.3592 10.0219 61.1676 9.99579L60.5929 9.90437L60.6844 9.06849L62.8394 8.91177L63.0222 9.01625L63.1528 10.2048H63.2051C63.4314 9.76941 63.7188 9.42983 64.0671 9.18604C64.4153 8.94224 64.7984 8.82034 65.2164 8.82034C65.6604 8.82034 66.0131 8.94224 66.2743 9.18604C66.5442 9.42983 66.6792 9.7607 66.6792 10.1786C66.6792 10.4398 66.64 10.6619 66.5616 10.8447C66.4833 11.0189 66.3657 11.1538 66.209 11.2496C66.061 11.3367 65.8738 11.3802 65.6474 11.3802C65.36 11.3802 65.1424 11.3193 64.9943 11.1974C64.8463 11.0755 64.7723 10.9231 64.7723 10.7402C64.7723 10.6706 64.7767 10.6009 64.7854 10.5313C64.8028 10.4616 64.8289 10.3833 64.8637 10.2962C64.8986 10.2004 64.9465 10.0916 65.0074 9.96967C64.8159 9.89131 64.6199 9.8826 64.4197 9.94355C64.2281 10.0045 64.0496 10.1177 63.8842 10.2831C63.7188 10.4486 63.5838 10.6575 63.4793 10.91C63.3836 11.1538 63.3357 11.4237 63.3357 11.7198V14.149C63.3357 14.358 63.3574 14.5017 63.401 14.58C63.4445 14.6584 63.5403 14.7063 63.6883 14.7237L64.707 14.8674V15.6641H60.6974ZM68.9744 15.8469C68.3824 15.8469 67.9122 15.6858 67.5639 15.3637C67.2156 15.0415 67.0415 14.6105 67.0415 14.0707C67.0415 13.5657 67.1677 13.1695 67.4202 12.8822C67.6815 12.5861 68.0863 12.3685 68.6349 12.2291C69.1921 12.0811 69.9192 11.9853 70.816 11.9418V11.0668C70.816 10.7272 70.7724 10.4529 70.6854 10.2439C70.607 10.0263 70.4808 9.86519 70.3066 9.7607C70.1325 9.65622 69.893 9.60397 69.5883 9.60397C69.3706 9.60397 69.1573 9.6388 68.9483 9.70846C68.7394 9.76941 68.5783 9.84777 68.4651 9.94355C68.5522 10.0742 68.6175 10.1917 68.661 10.2962C68.7132 10.392 68.7524 10.4747 68.7785 10.5443C68.8047 10.6053 68.8177 10.6619 68.8177 10.7141C68.8177 10.897 68.7394 11.0493 68.5826 11.1712C68.4259 11.2931 68.2126 11.3541 67.9427 11.3541C67.6727 11.3541 67.4638 11.2888 67.3158 11.1582C67.1764 11.0276 67.1068 10.8447 67.1068 10.6096C67.1068 10.2788 67.2287 9.97838 67.4725 9.70846C67.7163 9.43854 68.0471 9.22522 68.4651 9.06849C68.883 8.90306 69.3532 8.82034 69.8756 8.82034C70.4851 8.82034 70.9858 8.90741 71.3776 9.08155C71.7694 9.25569 72.0611 9.52561 72.2526 9.89131C72.4442 10.2483 72.54 10.7011 72.54 11.2496V14.1621C72.54 14.3537 72.5835 14.4973 72.6706 14.5931C72.7576 14.6889 72.8926 14.7368 73.0755 14.7368C73.1712 14.7368 73.2627 14.7281 73.3497 14.7106C73.4368 14.6932 73.5326 14.6715 73.6371 14.6453L73.7938 15.2853C73.6196 15.4333 73.402 15.5639 73.1408 15.6771C72.8795 15.7903 72.6227 15.8469 72.3702 15.8469C71.961 15.8469 71.6431 15.7511 71.4168 15.5596C71.1904 15.3593 71.0467 15.0807 70.9858 14.7237C70.8465 14.9501 70.681 15.1503 70.4895 15.3245C70.3066 15.4899 70.0889 15.6162 69.8364 15.7032C69.5839 15.799 69.2966 15.8469 68.9744 15.8469ZM69.6536 14.8021C69.88 14.8021 70.0802 14.7542 70.2544 14.6584C70.4285 14.5539 70.5635 14.4146 70.6593 14.2405C70.7637 14.0663 70.816 13.8661 70.816 13.6397V12.7385C70.3545 12.7385 69.9714 12.782 69.6667 12.8691C69.3619 12.9475 69.1355 13.0694 68.9875 13.2348C68.8482 13.4002 68.7785 13.6179 68.7785 13.8878C68.7785 14.1665 68.8525 14.3885 69.0006 14.5539C69.1573 14.7194 69.375 14.8021 69.6536 14.8021ZM74.0096 15.6641V14.8543L74.6626 14.7498C74.828 14.7237 74.9325 14.6715 74.9761 14.5931C75.0283 14.506 75.0544 14.3406 75.0544 14.0968V7.47511C75.0544 7.17907 75.0196 6.98316 74.9499 6.88738C74.889 6.79161 74.7453 6.7263 74.5189 6.69148L74.0096 6.61311L74.0879 5.75112L76.6086 5.64663L76.7784 5.80336V14.136C76.7784 14.3275 76.8002 14.4712 76.8437 14.567C76.896 14.654 77.0135 14.715 77.1964 14.7498L77.8233 14.8674V15.6641H74.0096ZM80.9288 15.6641V14.8543L81.5688 14.7498C81.7342 14.715 81.843 14.6584 81.8953 14.58C81.9475 14.493 81.9737 14.3232 81.9737 14.0707V8.04977C81.9737 7.8321 81.9432 7.67972 81.8822 7.59265C81.83 7.50558 81.7168 7.44899 81.5427 7.42287L80.9288 7.33144V6.52169H84.5858C85.0298 6.52169 85.439 6.55216 85.8135 6.61311C86.1879 6.67406 86.5187 6.76984 86.8061 6.90044C87.1021 7.03105 87.3502 7.20084 87.5505 7.4098C87.7595 7.61007 87.9162 7.85822 88.0207 8.15426C88.1252 8.44159 88.1774 8.77681 88.1774 9.15992C88.1774 9.56915 88.1165 9.93919 87.9946 10.2701C87.8727 10.5922 87.7029 10.8752 87.4852 11.119C87.2675 11.3541 87.015 11.55 86.7277 11.7067C86.4491 11.8634 86.1487 11.981 85.8265 12.0594C85.5044 12.1377 85.1822 12.1769 84.86 12.1769C84.6337 12.1769 84.4203 12.1725 84.2201 12.1638C84.0198 12.1464 83.8805 12.129 83.8021 12.1116V14.0837C83.8021 14.3188 83.8283 14.4843 83.8805 14.58C83.9414 14.6671 84.0808 14.7237 84.2984 14.7498L85.2127 14.8543V15.6641H80.9288ZM84.4552 11.1843C85.0559 11.1843 85.5087 11.0189 85.8135 10.688C86.1269 10.3571 86.2836 9.86083 86.2836 9.1991C86.2836 8.78987 86.214 8.459 86.0747 8.2065C85.9441 7.94529 85.7394 7.75373 85.4608 7.63183C85.1909 7.50994 84.8383 7.44899 84.4029 7.44899H83.8021V11.1321C83.8718 11.1495 83.9632 11.1625 84.0764 11.1712C84.1983 11.1799 84.3246 11.1843 84.4552 11.1843ZM88.6843 15.6641V14.8543L89.3373 14.7498C89.5028 14.7237 89.6073 14.6715 89.6508 14.5931C89.703 14.506 89.7292 14.3406 89.7292 14.0968V7.47511C89.7292 7.17907 89.6943 6.98316 89.6247 6.88738C89.5637 6.79161 89.4201 6.7263 89.1937 6.69148L88.6843 6.61311L88.7627 5.75112L91.2834 5.64663L91.4532 5.80336V14.136C91.4532 14.3275 91.4749 14.4712 91.5185 14.567C91.5707 14.654 91.6882 14.715 91.8711 14.7498L92.498 14.8674V15.6641H88.6843ZM95.0394 15.8469C94.4473 15.8469 93.9771 15.6858 93.6289 15.3637C93.2806 15.0415 93.1064 14.6105 93.1064 14.0707C93.1064 13.5657 93.2327 13.1695 93.4852 12.8822C93.7464 12.5861 94.1513 12.3685 94.6998 12.2291C95.2571 12.0811 95.9841 11.9853 96.8809 11.9418V11.0668C96.8809 10.7272 96.8374 10.4529 96.7503 10.2439C96.672 10.0263 96.5457 9.86519 96.3716 9.7607C96.1974 9.65622 95.958 9.60397 95.6532 9.60397C95.4356 9.60397 95.2222 9.6388 95.0133 9.70846C94.8043 9.76941 94.6432 9.84777 94.53 9.94355C94.6171 10.0742 94.6824 10.1917 94.7259 10.2962C94.7782 10.392 94.8174 10.4747 94.8435 10.5443C94.8696 10.6053 94.8827 10.6619 94.8827 10.7141C94.8827 10.897 94.8043 11.0493 94.6476 11.1712C94.4908 11.2931 94.2775 11.3541 94.0076 11.3541C93.7377 11.3541 93.5287 11.2888 93.3807 11.1582C93.2414 11.0276 93.1717 10.8447 93.1717 10.6096C93.1717 10.2788 93.2936 9.97838 93.5374 9.70846C93.7812 9.43854 94.1121 9.22522 94.53 9.06849C94.948 8.90306 95.4181 8.82034 95.9406 8.82034C96.5501 8.82034 97.0507 8.90741 97.4425 9.08155C97.8343 9.25569 98.126 9.52561 98.3176 9.89131C98.5091 10.2483 98.6049 10.7011 98.6049 11.2496V14.1621C98.6049 14.3537 98.6485 14.4973 98.7355 14.5931C98.8226 14.6889 98.9576 14.7368 99.1404 14.7368C99.2362 14.7368 99.3276 14.7281 99.4147 14.7106C99.5017 14.6932 99.5975 14.6715 99.702 14.6453L99.8587 15.2853C99.6846 15.4333 99.4669 15.5639 99.2057 15.6771C98.9445 15.7903 98.6876 15.8469 98.4351 15.8469C98.0259 15.8469 97.7081 15.7511 97.4817 15.5596C97.2553 15.3593 97.1117 15.0807 97.0507 14.7237C96.9114 14.9501 96.746 15.1503 96.5544 15.3245C96.3716 15.4899 96.1539 15.6162 95.9014 15.7032C95.6489 15.799 95.3616 15.8469 95.0394 15.8469ZM95.7185 14.8021C95.9449 14.8021 96.1452 14.7542 96.3193 14.6584C96.4935 14.5539 96.6284 14.4146 96.7242 14.2405C96.8287 14.0663 96.8809 13.8661 96.8809 13.6397V12.7385C96.4195 12.7385 96.0363 12.782 95.7316 12.8691C95.4269 12.9475 95.2005 13.0694 95.0525 13.2348C94.9131 13.4002 94.8435 13.6179 94.8435 13.8878C94.8435 14.1665 94.9175 14.3885 95.0655 14.5539C95.2222 14.7194 95.4399 14.8021 95.7185 14.8021ZM100.312 15.8469L100.116 13.5613L101.03 13.496C101.161 13.8095 101.313 14.0707 101.487 14.2796C101.67 14.4886 101.875 14.6453 102.101 14.7498C102.336 14.8543 102.589 14.9066 102.859 14.9066C103.216 14.9066 103.49 14.8238 103.681 14.6584C103.873 14.493 103.969 14.2666 103.969 13.9793C103.969 13.8051 103.921 13.6614 103.825 13.5483C103.729 13.4351 103.573 13.3349 103.355 13.2479C103.137 13.1521 102.841 13.0607 102.467 12.9736C102.136 12.8865 101.831 12.7864 101.553 12.6732C101.274 12.56 101.034 12.425 100.834 12.2683C100.634 12.1116 100.482 11.9244 100.377 11.7067C100.273 11.4803 100.22 11.2061 100.22 10.8839C100.22 10.4486 100.32 10.0785 100.521 9.77376C100.721 9.46902 101.004 9.23393 101.37 9.06849C101.735 8.90306 102.162 8.82034 102.65 8.82034C102.963 8.82034 103.255 8.86388 103.525 8.95095C103.803 9.02931 104.025 9.12944 104.191 9.25134L104.308 8.82034H105.053L105.209 11.0015L104.282 10.9361C104.169 10.5269 103.969 10.2135 103.681 9.99579C103.403 9.76941 103.085 9.65622 102.728 9.65622C102.388 9.65622 102.127 9.72587 101.944 9.86519C101.761 10.0045 101.67 10.2048 101.67 10.466C101.67 10.6314 101.714 10.7707 101.801 10.8839C101.896 10.9971 102.049 11.1016 102.258 11.1974C102.475 11.2844 102.767 11.3759 103.133 11.4716C103.507 11.5761 103.834 11.6893 104.112 11.8112C104.4 11.9244 104.639 12.0594 104.831 12.2161C105.031 12.3728 105.179 12.56 105.275 12.7777C105.371 12.9954 105.418 13.2609 105.418 13.5744C105.418 14.0358 105.31 14.4364 105.092 14.7759C104.883 15.1155 104.591 15.3811 104.217 15.5726C103.842 15.7555 103.407 15.8469 102.911 15.8469C102.536 15.8469 102.201 15.8034 101.905 15.7163C101.618 15.6379 101.374 15.5291 101.174 15.3898L101.03 15.8469H100.312ZM108.744 15.8469C108.318 15.8469 107.961 15.7773 107.673 15.6379C107.395 15.4899 107.181 15.2679 107.033 14.9719C106.885 14.6758 106.811 14.3014 106.811 13.8486V10.0219H105.832V9.15992C106.189 9.11638 106.472 9.0119 106.681 8.84646C106.898 8.68103 107.064 8.43288 107.177 8.10201C107.29 7.77115 107.369 7.34886 107.412 6.83514L108.34 6.7176L108.548 6.82208V9.00319H110.468V10.0219H108.548V13.6005C108.548 13.9401 108.609 14.1969 108.731 14.3711C108.862 14.5452 109.08 14.6323 109.384 14.6323C109.585 14.6323 109.776 14.6018 109.959 14.5409C110.151 14.4712 110.342 14.3754 110.534 14.2535L110.912 14.9196C110.643 15.1982 110.325 15.4246 109.959 15.5988C109.593 15.7642 109.188 15.8469 108.744 15.8469ZM111.198 15.6641V14.8543L111.851 14.7498C112.016 14.7237 112.12 14.6671 112.164 14.58C112.208 14.493 112.229 14.3319 112.229 14.0968V10.8317C112.229 10.5269 112.199 10.3223 112.138 10.2178C112.086 10.1046 111.959 10.035 111.759 10.0089L111.211 9.93049L111.302 9.06849L113.784 8.93789L113.966 9.02931V14.136C113.966 14.3101 113.984 14.4494 114.019 14.5539C114.062 14.6497 114.175 14.715 114.358 14.7498L114.998 14.8674V15.6641H111.198ZM112.908 7.69714C112.569 7.69714 112.299 7.60571 112.099 7.42287C111.898 7.24002 111.798 6.99622 111.798 6.69148C111.798 6.38673 111.898 6.14293 112.099 5.96009C112.299 5.77724 112.569 5.68581 112.908 5.68581C113.265 5.68581 113.54 5.77724 113.731 5.96009C113.932 6.13423 114.032 6.37802 114.032 6.69148C114.032 6.99622 113.927 7.24002 113.718 7.42287C113.518 7.60571 113.248 7.69714 112.908 7.69714ZM118.768 15.8469C118.097 15.8469 117.518 15.7076 117.031 15.429C116.552 15.1503 116.182 14.7585 115.921 14.2535C115.659 13.7398 115.529 13.139 115.529 12.4512C115.529 11.7198 115.668 11.0842 115.947 10.5443C116.225 9.99579 116.622 9.5735 117.135 9.27746C117.649 8.97272 118.254 8.82034 118.951 8.82034C119.464 8.82034 119.908 8.90306 120.283 9.06849C120.666 9.22522 120.962 9.43854 121.171 9.70846C121.38 9.96967 121.484 10.2614 121.484 10.5835C121.484 10.7664 121.445 10.9318 121.367 11.0798C121.297 11.2278 121.188 11.3454 121.04 11.4324C120.892 11.5195 120.709 11.5631 120.492 11.5631C120.213 11.5631 119.996 11.5021 119.839 11.3802C119.682 11.2583 119.604 11.0885 119.604 10.8708C119.604 10.7751 119.63 10.6662 119.682 10.5443C119.734 10.4137 119.826 10.2352 119.956 10.0089C119.8 9.90437 119.643 9.83471 119.486 9.79988C119.329 9.75635 119.134 9.73458 118.898 9.73458C118.594 9.73458 118.324 9.83036 118.089 10.0219C117.854 10.2135 117.671 10.4877 117.54 10.8447C117.41 11.193 117.344 11.6066 117.344 12.0855C117.344 12.8604 117.51 13.4655 117.841 13.9009C118.171 14.3275 118.642 14.5409 119.251 14.5409C119.582 14.5409 119.891 14.4886 120.178 14.3841C120.466 14.2709 120.744 14.1055 121.014 13.8878L121.55 14.5409C121.236 14.924 120.844 15.2374 120.374 15.4812C119.904 15.725 119.369 15.8469 118.768 15.8469ZM128.179 15.8469C127.709 15.8469 127.26 15.7729 126.834 15.6249C126.416 15.4682 126.067 15.2635 125.789 15.011L125.606 15.7424H124.835L124.6 12.8952L125.514 12.7777C125.628 13.0998 125.763 13.3872 125.919 13.6397C126.085 13.8835 126.272 14.0924 126.481 14.2666C126.699 14.432 126.934 14.5583 127.186 14.6453C127.439 14.7324 127.709 14.7759 127.996 14.7759C128.327 14.7759 128.601 14.7281 128.819 14.6323C129.045 14.5278 129.215 14.3841 129.328 14.2013C129.441 14.0097 129.498 13.7877 129.498 13.5352C129.498 13.2479 129.433 13.0041 129.302 12.8038C129.18 12.6035 128.971 12.4294 128.675 12.2814C128.388 12.1247 128.009 11.9723 127.539 11.8243C127.103 11.685 126.72 11.5369 126.389 11.3802C126.059 11.2148 125.776 11.0276 125.541 10.8186C125.314 10.6009 125.14 10.3484 125.018 10.0611C124.905 9.76505 124.848 9.41677 124.848 9.01625C124.848 8.74633 124.888 8.48512 124.966 8.23262C125.044 7.97141 125.162 7.72761 125.319 7.50123C125.475 7.27485 125.671 7.07458 125.906 6.90044C126.15 6.7263 126.433 6.59134 126.755 6.49557C127.086 6.39108 127.452 6.33884 127.852 6.33884C128.253 6.33884 128.618 6.39544 128.949 6.50863C129.28 6.62182 129.576 6.7829 129.837 6.99187L130.007 6.33884H130.752L131.039 9.08155L130.138 9.22522C129.99 8.76375 129.803 8.3937 129.576 8.11507C129.359 7.83645 129.11 7.63619 128.832 7.51429C128.562 7.38368 128.266 7.31838 127.944 7.31838C127.543 7.31838 127.212 7.42722 126.951 7.64489C126.69 7.86257 126.559 8.15861 126.559 8.53301C126.559 8.80293 126.625 9.02931 126.755 9.21216C126.894 9.39501 127.103 9.56044 127.382 9.70846C127.669 9.85648 128.031 10.0001 128.466 10.1395C128.928 10.2875 129.332 10.4486 129.681 10.6227C130.038 10.7881 130.334 10.9797 130.569 11.1974C130.804 11.415 130.978 11.6675 131.091 11.9549C131.213 12.2422 131.274 12.5818 131.274 12.9736C131.274 13.4177 131.191 13.8182 131.026 14.1752C130.861 14.5234 130.634 14.8238 130.347 15.0763C130.059 15.3288 129.729 15.5204 129.354 15.651C128.989 15.7816 128.597 15.8469 128.179 15.8469ZM134.926 15.8469C134.229 15.8469 133.703 15.6554 133.346 15.2722C132.989 14.8891 132.81 14.3362 132.81 13.6136V10.7925C132.81 10.4964 132.784 10.2962 132.732 10.1917C132.688 10.0872 132.566 10.0176 132.366 9.98273L131.844 9.89131L131.948 9.06849L134.364 8.91177L134.547 9.01625V13.1564C134.547 13.5221 134.578 13.8138 134.639 14.0315C134.708 14.2405 134.821 14.3928 134.978 14.4886C135.135 14.5757 135.344 14.6192 135.605 14.6192C135.91 14.6192 136.171 14.5539 136.389 14.4233C136.606 14.2927 136.772 14.1055 136.885 13.8617C137.007 13.6092 137.068 13.3088 137.068 12.9605V10.7794C137.068 10.4747 137.042 10.2744 136.99 10.1786C136.946 10.0829 136.824 10.0176 136.624 9.98273L136.128 9.90437L136.258 9.06849L138.622 8.91177L138.805 9.01625V14.0837C138.805 14.3188 138.831 14.4799 138.883 14.567C138.944 14.654 139.057 14.715 139.223 14.7498L139.784 14.8543V15.6641L137.381 15.7555L137.198 14.6453H137.146C136.955 14.8978 136.754 15.1155 136.545 15.2984C136.345 15.4725 136.114 15.6075 135.853 15.7032C135.592 15.799 135.283 15.8469 134.926 15.8469ZM140.518 15.6641V14.8674L141.08 14.7629C141.219 14.7368 141.311 14.6802 141.354 14.5931C141.398 14.506 141.419 14.3493 141.419 14.1229V10.8055C141.419 10.5008 141.393 10.2962 141.341 10.1917C141.297 10.0872 141.18 10.0219 140.988 9.99579L140.414 9.90437L140.505 9.06849L142.66 8.91177L142.843 9.01625L142.974 10.2048H143.026C143.252 9.76941 143.54 9.42983 143.888 9.18604C144.236 8.94224 144.619 8.82034 145.037 8.82034C145.481 8.82034 145.834 8.94224 146.095 9.18604C146.365 9.42983 146.5 9.7607 146.5 10.1786C146.5 10.4398 146.461 10.6619 146.382 10.8447C146.304 11.0189 146.186 11.1538 146.03 11.2496C145.882 11.3367 145.695 11.3802 145.468 11.3802C145.181 11.3802 144.963 11.3193 144.815 11.1974C144.667 11.0755 144.593 10.9231 144.593 10.7402C144.593 10.6706 144.597 10.6009 144.606 10.5313C144.624 10.4616 144.65 10.3833 144.685 10.2962C144.719 10.2004 144.767 10.0916 144.828 9.96967C144.637 9.89131 144.441 9.8826 144.24 9.94355C144.049 10.0045 143.87 10.1177 143.705 10.2831C143.54 10.4486 143.405 10.6575 143.3 10.91C143.204 11.1538 143.156 11.4237 143.156 11.7198V14.149C143.156 14.358 143.178 14.5017 143.222 14.58C143.265 14.6584 143.361 14.7063 143.509 14.7237L144.528 14.8674V15.6641H140.518ZM149.735 18.668C149.204 18.668 148.738 18.6332 148.337 18.5635C147.945 18.4938 147.619 18.3894 147.358 18.25C147.105 18.1107 146.914 17.9366 146.783 17.7276C146.652 17.5274 146.587 17.2879 146.587 17.0093C146.587 16.7568 146.639 16.5391 146.744 16.3563C146.857 16.1734 147.014 16.0123 147.214 15.873C147.414 15.7424 147.649 15.6249 147.919 15.5204V15.4682C147.641 15.3898 147.427 15.2505 147.279 15.0502C147.131 14.85 147.057 14.641 147.057 14.4233C147.057 14.1882 147.118 13.9749 147.24 13.7833C147.362 13.5831 147.571 13.3436 147.867 13.065V13.0258C147.545 12.8517 147.301 12.6166 147.136 12.3206C146.97 12.0158 146.887 11.6501 146.887 11.2235C146.887 10.7098 147.014 10.2744 147.266 9.91743C147.527 9.55173 147.88 9.27746 148.324 9.09461C148.777 8.91177 149.291 8.82034 149.865 8.82034C150.039 8.82034 150.227 8.8334 150.427 8.85952C150.636 8.88565 150.84 8.92918 151.041 8.99013C151.241 9.04237 151.428 9.11638 151.602 9.21216C151.794 8.7681 152.012 8.42417 152.255 8.18038C152.508 7.92787 152.795 7.80162 153.117 7.80162C153.291 7.80162 153.448 7.8321 153.588 7.89304C153.727 7.95399 153.836 8.04542 153.914 8.16732C154.001 8.28051 154.045 8.42417 154.045 8.59831C154.045 8.81599 153.966 9.0119 153.81 9.18604C153.662 9.35147 153.479 9.43419 153.261 9.43419C153.139 9.43419 153.03 9.39936 152.934 9.3297C152.839 9.26005 152.756 9.16862 152.686 9.05543L152.543 8.80728C152.464 8.91177 152.39 9.02931 152.321 9.15992C152.26 9.29052 152.199 9.43419 152.138 9.59091C152.329 9.79118 152.486 10.0219 152.608 10.2831C152.73 10.5356 152.791 10.8317 152.791 11.1712C152.791 11.624 152.669 12.0289 152.425 12.3859C152.19 12.7341 151.855 13.0084 151.419 13.2087C150.993 13.4089 150.475 13.5091 149.865 13.5091C149.656 13.5091 149.452 13.496 149.251 13.4699C149.051 13.4351 148.881 13.3959 148.742 13.3523C148.629 13.483 148.546 13.5961 148.494 13.6919C148.442 13.779 148.416 13.8748 148.416 13.9793C148.416 14.1099 148.446 14.2143 148.507 14.2927C148.577 14.3624 148.677 14.4146 148.807 14.4494C148.947 14.4756 149.116 14.4886 149.317 14.4886H151.263C152.064 14.4886 152.652 14.6279 153.026 14.9066C153.409 15.1852 153.601 15.6075 153.601 16.1734C153.601 16.4433 153.557 16.6958 153.47 16.9309C153.383 17.1747 153.248 17.4011 153.065 17.6101C152.882 17.8278 152.638 18.015 152.334 18.1717C152.038 18.3284 151.672 18.4503 151.237 18.5374C150.81 18.6245 150.309 18.668 149.735 18.668ZM149.904 17.7015C150.296 17.7015 150.631 17.6536 150.91 17.5578C151.197 17.4621 151.415 17.3271 151.563 17.153C151.711 16.9875 151.785 16.7916 151.785 16.5652C151.785 16.3301 151.698 16.1517 151.524 16.0298C151.359 15.9166 151.106 15.86 150.766 15.86H148.742C148.585 15.9819 148.463 16.1212 148.376 16.2779C148.298 16.4346 148.259 16.6088 148.259 16.8003C148.259 17.1138 148.389 17.3402 148.651 17.4795C148.912 17.6275 149.33 17.7015 149.904 17.7015ZM149.852 12.5687C150.235 12.5687 150.527 12.4512 150.727 12.2161C150.928 11.9723 151.028 11.6284 151.028 11.1843C151.028 10.6967 150.919 10.331 150.701 10.0872C150.492 9.83471 150.187 9.70846 149.787 9.70846C149.395 9.70846 149.103 9.83906 148.912 10.1003C148.729 10.3528 148.638 10.7011 148.638 11.1451C148.638 11.5718 148.742 11.9157 148.951 12.1769C149.169 12.4381 149.469 12.5687 149.852 12.5687ZM157.238 15.8469C156.542 15.8469 155.945 15.7076 155.449 15.429C154.961 15.1503 154.587 14.7585 154.326 14.2535C154.065 13.7398 153.934 13.1434 153.934 12.4642C153.934 11.7067 154.078 11.058 154.365 10.5182C154.661 9.96967 155.066 9.55173 155.58 9.2644C156.093 8.96836 156.69 8.82034 157.369 8.82034C157.9 8.82034 158.366 8.92047 158.766 9.12073C159.167 9.31229 159.476 9.59091 159.694 9.95661C159.911 10.3136 160.02 10.7446 160.02 11.2496C160.02 11.4499 160.007 11.6588 159.981 11.8765C159.955 12.0942 159.916 12.3119 159.863 12.5295H155.762C155.789 12.9649 155.88 13.3349 156.037 13.6397C156.193 13.9444 156.411 14.1752 156.69 14.3319C156.968 14.4886 157.29 14.567 157.656 14.567C158.031 14.567 158.375 14.5017 158.688 14.3711C159.001 14.2318 159.293 14.0489 159.563 13.8225L160.125 14.4364C159.802 14.863 159.389 15.2069 158.884 15.4682C158.379 15.7207 157.83 15.8469 157.238 15.8469ZM155.762 11.6284H158.296C158.314 11.5326 158.322 11.4368 158.322 11.341C158.331 11.2365 158.335 11.1277 158.335 11.0145C158.335 10.5879 158.244 10.2614 158.061 10.035C157.878 9.80859 157.604 9.6954 157.238 9.6954C156.942 9.6954 156.69 9.77376 156.481 9.93049C156.272 10.0872 156.106 10.3092 155.984 10.5966C155.871 10.8839 155.797 11.2278 155.762 11.6284ZM160.792 15.6641V14.8674L161.354 14.7629C161.493 14.7368 161.584 14.6802 161.628 14.5931C161.672 14.506 161.693 14.3493 161.693 14.1229V10.8055C161.693 10.5008 161.667 10.2962 161.615 10.1917C161.571 10.0872 161.454 10.0219 161.262 9.99579L160.688 9.90437L160.779 9.06849L162.934 8.91177L163.117 9.01625L163.248 10.2048H163.3C163.526 9.76941 163.813 9.42983 164.162 9.18604C164.51 8.94224 164.893 8.82034 165.311 8.82034C165.755 8.82034 166.108 8.94224 166.369 9.18604C166.639 9.42983 166.774 9.7607 166.774 10.1786C166.774 10.4398 166.735 10.6619 166.656 10.8447C166.578 11.0189 166.46 11.1538 166.304 11.2496C166.156 11.3367 165.968 11.3802 165.742 11.3802C165.455 11.3802 165.237 11.3193 165.089 11.1974C164.941 11.0755 164.867 10.9231 164.867 10.7402C164.867 10.6706 164.871 10.6009 164.88 10.5313C164.897 10.4616 164.924 10.3833 164.958 10.2962C164.993 10.2004 165.041 10.0916 165.102 9.96967C164.911 9.89131 164.715 9.8826 164.514 9.94355C164.323 10.0045 164.144 10.1177 163.979 10.2831C163.813 10.4486 163.679 10.6575 163.574 10.91C163.478 11.1538 163.43 11.4237 163.43 11.7198V14.149C163.43 14.358 163.452 14.5017 163.496 14.58C163.539 14.6584 163.635 14.7063 163.783 14.7237L164.802 14.8674V15.6641H160.792ZM168.285 18.668C167.823 18.668 167.449 18.5635 167.161 18.3545C166.883 18.1456 166.743 17.8582 166.743 17.4925C166.743 17.2226 166.826 16.9919 166.992 16.8003C167.166 16.6088 167.392 16.513 167.671 16.513C167.915 16.513 168.097 16.5652 168.219 16.6697C168.35 16.7742 168.42 16.9048 168.428 17.0615C168.437 17.1312 168.428 17.2313 168.402 17.3619C168.385 17.4925 168.354 17.6493 168.311 17.8321C168.52 17.8582 168.703 17.8234 168.859 17.7276C169.016 17.6318 169.164 17.4708 169.303 17.2444C169.443 17.018 169.595 16.7089 169.76 16.3171L170.022 15.7032L167.788 10.5966C167.693 10.3702 167.61 10.2178 167.54 10.1395C167.479 10.0524 167.375 9.99144 167.227 9.95661L166.783 9.85212L166.913 9.00319H170.387V9.81294L169.839 9.89131C169.673 9.90872 169.565 9.96532 169.512 10.0611C169.469 10.1569 169.499 10.3267 169.604 10.5705L170.91 13.8095H170.975L172.242 10.6488C172.329 10.4486 172.355 10.2875 172.32 10.1656C172.285 10.0437 172.168 9.96532 171.968 9.93049L171.432 9.81294L171.589 9.00319H174.371V9.826L173.914 9.91743C173.766 9.95226 173.652 10.0132 173.574 10.1003C173.504 10.1873 173.409 10.3702 173.287 10.6488L170.949 16.1604C170.766 16.6044 170.583 16.9832 170.4 17.2966C170.218 17.6188 170.026 17.88 169.826 18.0803C169.625 18.2805 169.399 18.4285 169.147 18.5243C168.903 18.6201 168.615 18.668 168.285 18.668Z" fill="#FEEE9A"></path><path d="M54.6665 22.948V27.6973H53.7992L51.7329 24.7081H51.6982V27.6973H50.694V22.948H51.5752L53.6252 25.9348H53.667V22.948H54.6665ZM59.8604 25.3226C59.8604 25.8405 59.7622 26.2811 59.5659 26.6444C59.3711 27.0078 59.1052 27.2853 58.7682 27.477C58.4327 27.6671 58.0555 27.7622 57.6365 27.7622C57.2144 27.7622 56.8357 27.6663 56.5002 27.4746C56.1647 27.2829 55.8996 27.0054 55.7048 26.6421C55.51 26.2788 55.4126 25.839 55.4126 25.3226C55.4126 24.8047 55.51 24.3641 55.7048 24.0008C55.8996 23.6375 56.1647 23.3608 56.5002 23.1706C56.8357 22.9789 57.2144 22.883 57.6365 22.883C58.0555 22.883 58.4327 22.9789 58.7682 23.1706C59.1052 23.3608 59.3711 23.6375 59.5659 24.0008C59.7622 24.3641 59.8604 24.8047 59.8604 25.3226ZM58.8424 25.3226C58.8424 24.9871 58.7921 24.7042 58.6916 24.4739C58.5927 24.2435 58.4528 24.0688 58.2719 23.9498C58.091 23.8307 57.8792 23.7712 57.6365 23.7712C57.3938 23.7712 57.182 23.8307 57.0011 23.9498C56.8202 24.0688 56.6795 24.2435 56.579 24.4739C56.4801 24.7042 56.4306 24.9871 56.4306 25.3226C56.4306 25.6581 56.4801 25.941 56.579 26.1714C56.6795 26.4017 56.8202 26.5764 57.0011 26.6955C57.182 26.8145 57.3938 26.874 57.6365 26.874C57.8792 26.874 58.091 26.8145 58.2719 26.6955C58.4528 26.5764 58.5927 26.4017 58.6916 26.1714C58.7921 25.941 58.8424 25.6581 58.8424 25.3226ZM60.6042 27.6973V22.948H62.478C62.8366 22.948 63.1427 23.0121 63.3963 23.1405C63.6514 23.2672 63.8454 23.4473 63.9783 23.6808C64.1128 23.9127 64.1801 24.1855 64.1801 24.4994C64.1801 24.8148 64.1121 25.0861 63.976 25.3133C63.84 25.5391 63.6429 25.7122 63.3847 25.8328C63.1281 25.9534 62.8173 26.0137 62.4525 26.0137H61.1979V25.2067H62.2901C62.4818 25.2067 62.6411 25.1804 62.7678 25.1278C62.8946 25.0753 62.9889 24.9964 63.0508 24.8913C63.1141 24.7862 63.1458 24.6555 63.1458 24.4994C63.1458 24.3417 63.1141 24.2087 63.0508 24.1005C62.9889 23.9923 62.8938 23.9104 62.7655 23.8547C62.6387 23.7975 62.4787 23.7689 62.2855 23.7689H61.6083V27.6973H60.6042ZM63.169 25.536L64.3494 27.6973H63.2409L62.0861 25.536H63.169ZM66.5733 27.6973H64.8897V22.948H66.5872C67.0649 22.948 67.4762 23.0431 67.8209 23.2332C68.1657 23.4218 68.4308 23.6931 68.6163 24.0472C68.8034 24.4012 68.8969 24.8248 68.8969 25.318C68.8969 25.8127 68.8034 26.2378 68.6163 26.5934C68.4308 26.949 68.1641 27.2219 67.8163 27.412C67.47 27.6022 67.0556 27.6973 66.5733 27.6973ZM65.8938 26.8369H66.5316C66.8284 26.8369 67.0781 26.7844 67.2806 26.6792C67.4847 26.5726 67.6377 26.4079 67.7397 26.1853C67.8433 25.9611 67.8951 25.672 67.8951 25.318C67.8951 24.967 67.8433 24.6803 67.7397 24.4576C67.6377 24.235 67.4854 24.0711 67.2829 23.966C67.0804 23.8609 66.8307 23.8083 66.5339 23.8083H65.8938V26.8369ZM69.6407 27.6973V22.948H70.6449V26.8694H72.6809V27.6973H69.6407ZM74.2857 27.6973H73.2097L74.8492 22.948H76.1432L77.7804 27.6973H76.7044L75.5147 24.0333H75.4776L74.2857 27.6973ZM74.2184 25.8305H76.76V26.6143H74.2184V25.8305ZM82.3244 22.948V27.6973H81.4571L79.3909 24.7081H79.3561V27.6973H78.352V22.948H79.2332L81.2832 25.9348H81.3249V22.948H82.3244ZM84.8376 27.6973H83.154V22.948H84.8515C85.3293 22.948 85.7405 23.0431 86.0852 23.2332C86.43 23.4218 86.6951 23.6931 86.8807 24.0472C87.0677 24.4012 87.1613 24.8248 87.1613 25.318C87.1613 25.8127 87.0677 26.2378 86.8807 26.5934C86.6951 26.949 86.4285 27.2219 86.0806 27.412C85.7343 27.6022 85.32 27.6973 84.8376 27.6973ZM84.1582 26.8369H84.7959C85.0927 26.8369 85.3424 26.7844 85.5449 26.6792C85.749 26.5726 85.902 26.4079 86.0041 26.1853C86.1077 25.9611 86.1595 25.672 86.1595 25.318C86.1595 24.967 86.1077 24.6803 86.0041 24.4576C85.902 24.235 85.7498 24.0711 85.5472 23.966C85.3447 23.8609 85.095 23.8083 84.7982 23.8083H84.1582V26.8369ZM89.9753 26.1737C89.8223 26.1737 89.6909 26.1196 89.5811 26.0114C89.4729 25.9016 89.4188 25.7702 89.4188 25.6171C89.4188 25.4656 89.4729 25.3358 89.5811 25.2275C89.6909 25.1193 89.8223 25.0652 89.9753 25.0652C90.1238 25.0652 90.2536 25.1193 90.3649 25.2275C90.4762 25.3358 90.5319 25.4656 90.5319 25.6171C90.5319 25.7192 90.5056 25.8127 90.4531 25.8977C90.402 25.9812 90.3348 26.0485 90.2513 26.0995C90.1678 26.149 90.0758 26.1737 89.9753 26.1737ZM92.8729 27.6973V22.948H93.877V24.9075H95.9154V22.948H96.9172V27.6973H95.9154V25.7354H93.877V27.6973H92.8729ZM100.679 22.948H101.683V26.0322C101.683 26.3785 101.6 26.6815 101.435 26.9413C101.271 27.201 101.041 27.4035 100.746 27.5489C100.451 27.6926 100.107 27.7645 99.7139 27.7645C99.3197 27.7645 98.9749 27.6926 98.6797 27.5489C98.3844 27.4035 98.1548 27.201 97.9909 26.9413C97.827 26.6815 97.7451 26.3785 97.7451 26.0322V22.948H98.7492V25.9464C98.7492 26.1273 98.7887 26.2881 98.8675 26.4288C98.9479 26.5695 99.0608 26.68 99.2061 26.7604C99.3514 26.8408 99.5207 26.881 99.7139 26.881C99.9087 26.881 100.078 26.8408 100.222 26.7604C100.367 26.68 100.479 26.5695 100.558 26.4288C100.638 26.2881 100.679 26.1273 100.679 25.9464V22.948ZM102.328 23.7759V22.948H106.229V23.7759H104.775V27.6973H103.782V23.7759H102.328ZM106.69 23.7759V22.948H110.591V23.7759H109.137V27.6973H108.144V23.7759H106.69ZM115.38 25.3226C115.38 25.8405 115.282 26.2811 115.086 26.6444C114.891 27.0078 114.625 27.2853 114.288 27.477C113.953 27.6671 113.575 27.7622 113.157 27.7622C112.734 27.7622 112.356 27.6663 112.02 27.4746C111.685 27.2829 111.42 27.0054 111.225 26.6421C111.03 26.2788 110.933 25.839 110.933 25.3226C110.933 24.8047 111.03 24.3641 111.225 24.0008C111.42 23.6375 111.685 23.3608 112.02 23.1706C112.356 22.9789 112.734 22.883 113.157 22.883C113.575 22.883 113.953 22.9789 114.288 23.1706C114.625 23.3608 114.891 23.6375 115.086 24.0008C115.282 24.3641 115.38 24.8047 115.38 25.3226ZM114.362 25.3226C114.362 24.9871 114.312 24.7042 114.212 24.4739C114.113 24.2435 113.973 24.0688 113.792 23.9498C113.611 23.8307 113.399 23.7712 113.157 23.7712C112.914 23.7712 112.702 23.8307 112.521 23.9498C112.34 24.0688 112.2 24.2435 112.099 24.4739C112 24.7042 111.951 24.9871 111.951 25.3226C111.951 25.6581 112 25.941 112.099 26.1714C112.2 26.4017 112.34 26.5764 112.521 26.6955C112.702 26.8145 112.914 26.874 113.157 26.874C113.399 26.874 113.611 26.8145 113.792 26.6955C113.973 26.5764 114.113 26.4017 114.212 26.1714C114.312 25.941 114.362 25.6581 114.362 25.3226ZM120.097 22.948V27.6973H119.229L117.163 24.7081H117.128V27.6973H116.124V22.948H117.005L119.055 25.9348H119.097V22.948H120.097ZM122.997 26.1737C122.844 26.1737 122.712 26.1196 122.602 26.0114C122.494 25.9016 122.44 25.7702 122.44 25.6171C122.44 25.4656 122.494 25.3358 122.602 25.2275C122.712 25.1193 122.844 25.0652 122.997 25.0652C123.145 25.0652 123.275 25.1193 123.386 25.2275C123.497 25.3358 123.553 25.4656 123.553 25.6171C123.553 25.7192 123.527 25.8127 123.474 25.8977C123.423 25.9812 123.356 26.0485 123.273 26.0995C123.189 26.149 123.097 26.1737 122.997 26.1737ZM125.894 27.6973V22.948H126.898V26.8694H128.934V27.6973H125.894ZM133.779 25.3226C133.779 25.8405 133.681 26.2811 133.484 26.6444C133.289 27.0078 133.023 27.2853 132.686 27.477C132.351 27.6671 131.974 27.7622 131.555 27.7622C131.133 27.7622 130.754 27.6663 130.418 27.4746C130.083 27.2829 129.818 27.0054 129.623 26.6421C129.428 26.2788 129.331 25.839 129.331 25.3226C129.331 24.8047 129.428 24.3641 129.623 24.0008C129.818 23.6375 130.083 23.3608 130.418 23.1706C130.754 22.9789 131.133 22.883 131.555 22.883C131.974 22.883 132.351 22.9789 132.686 23.1706C133.023 23.3608 133.289 23.6375 133.484 24.0008C133.681 24.3641 133.779 24.8047 133.779 25.3226ZM132.761 25.3226C132.761 24.9871 132.71 24.7042 132.61 24.4739C132.511 24.2435 132.371 24.0688 132.19 23.9498C132.009 23.8307 131.798 23.7712 131.555 23.7712C131.312 23.7712 131.1 23.8307 130.919 23.9498C130.739 24.0688 130.598 24.2435 130.497 24.4739C130.398 24.7042 130.349 24.9871 130.349 25.3226C130.349 25.6581 130.398 25.941 130.497 26.1714C130.598 26.4017 130.739 26.5764 130.919 26.6955C131.1 26.8145 131.312 26.874 131.555 26.874C131.798 26.874 132.009 26.8145 132.19 26.6955C132.371 26.5764 132.511 26.4017 132.61 26.1714C132.71 25.941 132.761 25.6581 132.761 25.3226ZM134.523 27.6973V22.948H137.667V23.7759H135.527V24.9075H137.458V25.7354H135.527V27.6973H134.523ZM138.162 23.7759V22.948H142.062V23.7759H140.608V27.6973H139.616V23.7759H138.162ZM142.704 27.6973V22.948H143.709V24.9075H145.747V22.948H146.749V27.6973H145.747V25.7354H143.709V27.6973H142.704ZM150.51 22.948H151.514V26.0322C151.514 26.3785 151.432 26.6815 151.266 26.9413C151.102 27.201 150.873 27.4035 150.577 27.5489C150.282 27.6926 149.938 27.7645 149.545 27.7645C149.151 27.7645 148.806 27.6926 148.511 27.5489C148.216 27.4035 147.986 27.201 147.822 26.9413C147.659 26.6815 147.577 26.3785 147.577 26.0322V22.948H148.581V25.9464C148.581 26.1273 148.62 26.2881 148.699 26.4288C148.779 26.5695 148.892 26.68 149.038 26.7604C149.183 26.8408 149.352 26.881 149.545 26.881C149.74 26.881 149.91 26.8408 150.053 26.7604C150.199 26.68 150.311 26.5695 150.39 26.4288C150.47 26.2881 150.51 26.1273 150.51 25.9464V22.948ZM154.917 24.3139C154.898 24.1268 154.819 23.9815 154.678 23.8779C154.537 23.7743 154.346 23.7225 154.105 23.7225C153.941 23.7225 153.803 23.7457 153.69 23.7921C153.577 23.8369 153.491 23.8995 153.43 23.9799C153.372 24.0603 153.342 24.1515 153.342 24.2536C153.339 24.3386 153.357 24.4128 153.396 24.4762C153.436 24.5396 153.491 24.5945 153.56 24.6408C153.63 24.6857 153.71 24.7251 153.801 24.7591C153.893 24.7916 153.99 24.8194 154.094 24.8426L154.52 24.9446C154.727 24.991 154.918 25.0528 155.091 25.1301C155.264 25.2074 155.414 25.3025 155.541 25.4154C155.667 25.5282 155.766 25.6612 155.835 25.8142C155.906 25.9673 155.943 26.1428 155.944 26.3407C155.943 26.6313 155.868 26.8833 155.722 27.0966C155.576 27.3084 155.366 27.4731 155.091 27.5906C154.817 27.7065 154.487 27.7645 154.101 27.7645C153.717 27.7645 153.383 27.7058 153.099 27.5883C152.816 27.4708 152.595 27.2969 152.436 27.0665C152.278 26.8346 152.195 26.5478 152.187 26.2062H153.159C153.17 26.3654 153.215 26.4983 153.296 26.605C153.378 26.7102 153.487 26.7898 153.623 26.8439C153.76 26.8964 153.916 26.9227 154.089 26.9227C154.259 26.9227 154.407 26.898 154.532 26.8485C154.659 26.799 154.757 26.7302 154.826 26.6421C154.896 26.554 154.931 26.4527 154.931 26.3383C154.931 26.2317 154.899 26.142 154.836 26.0693C154.774 25.9967 154.683 25.9348 154.562 25.8838C154.443 25.8328 154.297 25.7864 154.124 25.7447L153.607 25.6148C153.206 25.5174 152.89 25.3651 152.658 25.158C152.426 24.9508 152.311 24.6718 152.313 24.3208C152.311 24.0333 152.388 23.782 152.542 23.5672C152.698 23.3523 152.912 23.1845 153.185 23.0639C153.457 22.9433 153.766 22.883 154.112 22.883C154.465 22.883 154.772 22.9433 155.035 23.0639C155.299 23.1845 155.505 23.3523 155.652 23.5672C155.799 23.782 155.875 24.0309 155.879 24.3139H154.917Z" fill="#FEEE9A"></path><path d="M21.2891 14.8564H9.41211L15.3506 4.57031L21.2891 14.8564Z" stroke="#FEEE9A" stroke-width="1.30605"></path><path d="M14.1016 27.2666H2.22461L8.16309 16.9805L14.1016 27.2666Z" stroke="#FEEE9A" stroke-width="1.30605"></path><path d="M28.4766 27.2666H16.5996L22.5381 16.9805L28.4766 27.2666Z" stroke="#FEEE9A" stroke-width="1.30605"></path><rect x="37.875" width="0.97954" height="31.9983" fill="#FEEE9A"></rect></svg>