<svg xmlns="http://www.w3.org/2000/svg" width="60" height="61" viewBox="0 0 60 61" fill="none"><g clip-path="url(#clip0_2008_151)"><path fill-rule="evenodd" clip-rule="evenodd" d="M46.7958 0.800795C46.884 0.812568 46.9688 0.842169 47.0458 0.886733C47.1229 0.93141 47.1909 0.990742 47.245 1.06154C47.3544 1.2045 47.4025 1.38505 47.3788 1.56349C47.3551 1.74194 47.261 1.90428 47.1181 2.01369L25.2011 17.6983L25.1444 17.7383L23.8603 22.1143L23.9569 22.1983C24.7362 22.8752 25.1724 23.9076 25.2274 24.8477L25.2333 25.0342C25.2334 26.0978 25.1302 27.1584 24.9247 28.2012L24.83 28.6475L24.4638 30.2695L24.4091 30.5137H26.8944C28.0036 30.4935 29.2469 31.1399 29.8417 31.9268L29.996 32.1309L30.1571 31.9317C30.8525 31.0676 31.9169 30.5137 33.1083 30.5137H39.6405C40.7919 30.5138 41.8247 31.0311 42.5204 31.8457L42.6776 32.0303L42.829 31.8408C43.4717 31.0329 44.4614 30.5137 45.5702 30.5137H51.5019C53.3723 30.5137 54.9058 31.9884 54.9999 33.836L55.0038 34.0166C55.0035 34.7247 54.9528 35.4319 54.8524 36.1328L54.831 36.2832L54.9706 36.3447C55.7895 36.7032 56.5121 37.2505 57.078 37.9424C57.6426 38.6327 58.0351 39.4471 58.2245 40.3184L59.7138 52.8828L59.7148 52.8916L59.7167 52.9014C59.821 53.3824 59.8233 53.8803 59.7235 54.3623C59.6238 54.8442 59.4242 55.3001 59.1376 55.7002C58.8506 56.0995 58.4827 56.434 58.0585 56.6826C57.6342 56.9312 57.1624 57.0884 56.6737 57.1436L53.4608 57.5049L53.3075 56.1563L56.5224 55.794L56.7489 55.7569C57.2681 55.6435 57.719 55.3472 58.0341 54.9082C58.3914 54.4102 58.5185 53.8053 58.3925 53.2061L56.9032 40.6328L56.8993 40.6133C56.7702 40.0178 56.516 39.4564 56.1532 38.9668C55.7904 38.4772 55.3271 38.0703 54.7948 37.7735L54.5614 37.6436L54.5028 37.9043L53.4403 42.6045C52.9186 44.913 50.9028 46.5244 48.536 46.5244C46.169 46.5244 44.1533 44.9132 43.6317 42.6045L42.9931 39.7803H42.6034L41.7079 43.7442C41.1407 46.2547 38.9478 48.0068 36.3739 48.0069C33.7999 48.0068 31.6072 46.2548 31.0399 43.7442L30.1942 39.999L30.1747 39.916L30.1024 39.8711L28.6396 38.9893L28.9501 37.6162C29.1646 36.6656 29.2868 35.6962 29.3144 34.7227L29.3202 34.3057C29.334 32.8886 28.0645 31.8573 26.8905 31.8711H24.1024L23.5146 34.4756L23.5136 34.4785C23.0379 36.7428 20.9348 38.5051 18.7763 38.7041L18.5487 38.7256L18.5995 38.9473L18.6981 39.3887L17.0341 39.6426L17.0038 39.7754L16.3642 42.6055C15.843 44.9134 13.827 46.5244 11.4599 46.5244C10.3227 46.5244 9.20786 46.1331 8.3212 45.4238C7.48645 44.7552 6.88708 43.8401 6.60733 42.8115L6.55557 42.6045L5.49307 37.9043L5.43448 37.6436L5.20108 37.7735C4.66894 38.0703 4.20547 38.4773 3.84268 38.9668C3.47991 39.4564 3.22569 40.0178 3.09659 40.6133L3.09463 40.6231L3.09366 40.6319L1.60245 53.2061C1.47663 53.805 1.60366 54.4101 1.96084 54.9082C2.32092 55.4097 2.85906 55.7251 3.47256 55.794L20.2431 57.6836C26.7266 58.4116 33.2713 58.4116 39.7548 57.6836L53.3075 56.1563L53.4608 57.5049C53.6591 57.4736 53.1991 57.5468 53.1562 57.5527C53.0423 57.5686 52.8836 57.589 52.6942 57.6113C52.3156 57.6561 51.8176 57.7103 51.3192 57.7637C50.3262 57.87 49.3242 57.9719 49.2655 57.9785L39.9071 59.0332C36.6199 59.4028 33.3093 59.5869 29.9989 59.5869C26.6886 59.5869 23.3779 59.4028 20.0907 59.0332L3.3212 57.1436C2.83266 57.0882 2.3606 56.9312 1.93643 56.6826C1.51243 56.4341 1.1452 56.0993 0.858306 55.7002C0.571647 55.3002 0.372163 54.8443 0.272368 54.3623C0.172592 53.8803 0.174903 53.3824 0.279204 52.9014L0.281157 52.8916L0.282134 52.8828L1.77041 40.3184C1.95983 39.447 2.35327 38.6327 2.91788 37.9424C3.4838 37.2505 4.20646 36.7032 5.0253 36.3447L5.16397 36.2832L5.14249 36.1328C5.04256 35.4324 4.99209 34.7243 4.99209 34.0166C4.9921 33.08 5.35562 32.2012 6.01651 31.5401C6.67861 30.878 7.55831 30.5137 8.49405 30.5137H8.62784C9.00272 30.5138 9.30654 30.8174 9.30655 31.1924C9.30654 31.5674 9.00272 31.871 8.62784 31.8711H8.49405C8.21223 31.8704 7.93313 31.9263 7.67276 32.0342C7.41227 32.1421 7.1753 32.3001 6.97647 32.5C6.57243 32.9044 6.34952 33.4438 6.34952 34.0166C6.34954 34.2864 6.44911 34.9462 6.59073 35.7578C6.73408 36.5794 6.92537 37.5807 7.11612 38.5498C7.30691 39.5191 7.49748 40.4576 7.64053 41.1533C7.712 41.5009 7.77167 41.788 7.81338 41.9883C7.83425 42.0885 7.85103 42.1673 7.86221 42.2207C7.86775 42.2472 7.87202 42.2675 7.87491 42.2813C7.8763 42.2879 7.8771 42.2934 7.87784 42.2969L7.87881 42.3008V42.3027L7.87979 42.3057C8.06411 43.1174 8.51817 43.8429 9.16788 44.3633L9.41885 44.5469C10.0198 44.9485 10.7333 45.167 11.4599 45.167C13.1866 45.1669 14.6598 43.9895 15.0399 42.3057L15.9511 38.2725L15.8075 38.2031C14.3402 37.5017 13.2274 36.1603 12.8466 34.4756C12.7778 34.1707 12.716 33.5012 12.664 32.6318C12.6124 31.7694 12.5705 30.7275 12.538 29.6914C12.4729 27.6206 12.4448 25.5764 12.4433 25.0342C12.4433 22.946 14.1431 21.2463 16.2314 21.2461L17.5009 21.2451V13.5762C17.5016 12.993 17.6234 12.416 17.8573 11.8819C18.0912 11.3481 18.4326 10.8685 18.8603 10.4727L29.2235 0.974623C29.3559 0.853173 29.5313 0.789446 29.7108 0.796889C29.8903 0.80438 30.0597 0.882686 30.1815 1.01466C30.3034 1.14674 30.3682 1.32242 30.3612 1.50197C30.3542 1.68088 30.2764 1.84964 30.1454 1.97169L19.7821 11.4688L19.7812 11.4697C19.4907 11.7384 19.2592 12.0644 19.1005 12.4268C18.9418 12.7892 18.8598 13.1805 18.8593 13.5762V22.0078L19.2509 22.0664L21.3964 14.9453C21.435 14.8176 21.5095 14.7033 21.6122 14.6182L38.8993 0.954115L38.9023 0.951186C39.0409 0.836248 39.22 0.781127 39.3993 0.797865C39.5784 0.814635 39.7434 0.901693 39.8583 1.04005C39.9732 1.17865 40.0284 1.35787 40.0116 1.53712C39.9948 1.71623 39.907 1.88127 39.7685 1.99611L22.6874 15.4922L22.6376 15.5313L22.62 15.5908L20.9931 20.9873L20.914 21.252L21.1903 21.2451C21.7197 21.2321 22.2053 21.314 22.456 21.3818L22.6444 21.4326L22.7001 21.2451L23.9032 17.1465C23.9438 17.0081 24.0279 16.8855 24.1425 16.7979L24.1415 16.7969L46.288 0.93849L46.2939 0.934584C46.3645 0.880581 46.4452 0.841292 46.5312 0.818373C46.6173 0.795404 46.7074 0.789044 46.7958 0.800795ZM33.1083 31.8721C31.7689 31.8721 30.6787 32.9607 30.6776 34.2998V34.3057L30.6845 34.7236C30.712 35.697 30.8333 36.6658 31.0478 37.6162L32.3651 43.4444C32.7913 45.3306 34.4402 46.6494 36.3739 46.6494C38.3076 46.6494 39.9565 45.3303 40.3827 43.4444L41.7001 37.6162C41.9457 36.5286 42.0701 35.4168 42.0702 34.3018L42.0575 34.0537C41.9329 32.8298 40.8958 31.8721 39.6396 31.8721H33.1083ZM45.5702 31.8721C44.3876 31.8721 43.4257 32.8341 43.4257 34.0166C43.4259 35.0245 43.5377 36.0296 43.7597 37.0127L44.956 42.3057C45.3367 43.9898 46.8094 45.167 48.536 45.167C50.2625 45.167 51.7354 43.9898 52.1161 42.3057L53.3114 37.0127C53.5334 36.0311 53.6464 35.0227 53.6464 34.0166C53.6464 32.834 52.6844 31.8721 51.5019 31.8721H45.5702ZM20.5067 22.6035L20.0126 24.2432C19.8459 24.7962 19.349 25.1551 18.7899 25.1553L18.5976 25.1426C17.9617 25.0489 17.501 24.5157 17.5009 23.8731V22.6035L16.2304 22.6045C14.8905 22.6048 13.8007 23.6943 13.8007 25.0342C13.8005 25.6273 13.8394 27.6656 13.9042 29.6738C13.9366 30.6785 13.9751 31.6776 14.0194 32.4854C14.0633 33.284 14.1133 33.9175 14.1708 34.1758L14.1718 34.1787C15.1382 38.2635 21.0559 38.5784 22.1884 34.1826L22.1894 34.1768L23.5058 28.3477C23.7514 27.2648 23.8759 26.1499 23.8759 25.0332C23.8866 23.6175 22.6186 22.59 21.4462 22.6035H20.5067Z" fill="#58BA66"></path><path d="M22.2167 55.2978C22.2954 54.8189 22.7475 54.4943 23.2264 54.573C23.372 54.5969 23.5251 54.6108 23.6865 54.6134C23.8489 54.6159 24.0027 54.6068 24.1486 54.5873C24.6297 54.523 25.0718 54.8609 25.1361 55.342C25.2004 55.8231 24.8625 56.2654 24.3814 56.3296C24.1463 56.361 23.9053 56.3749 23.6587 56.371C23.4136 56.3671 23.1744 56.3458 22.9415 56.3076C22.4625 56.2289 22.1381 55.7768 22.2167 55.2978ZM26.5017 52.8591C26.7605 52.4484 27.3032 52.3252 27.7139 52.5839C28.1246 52.8426 28.2478 53.3853 27.9891 53.796C27.744 54.1852 27.4687 54.5481 27.159 54.8721C26.8236 55.223 26.2673 55.2356 25.9164 54.9002C25.5655 54.5648 25.5529 54.0085 25.8883 53.6576C26.105 53.4309 26.3095 53.1642 26.5017 52.8591ZM19.675 52.5238C20.0864 52.2663 20.6288 52.391 20.8863 52.8025C21.077 53.1071 21.2803 53.3749 21.4959 53.6042C21.8283 53.9579 21.8111 54.5142 21.4574 54.8466C21.1037 55.179 20.5475 55.1618 20.215 54.8082C19.9101 54.4837 19.6385 54.1221 19.3963 53.7352C19.1388 53.3237 19.2635 52.7814 19.675 52.5238ZM27.7715 49.602C27.8865 49.1304 28.3621 48.8415 28.8337 48.9566C29.3053 49.0717 29.5942 49.5472 29.4791 50.0188C29.3797 50.4263 29.2683 50.8277 29.1437 51.2184C28.9962 51.6808 28.5018 51.9361 28.0394 51.7886C27.5769 51.6411 27.3216 51.1466 27.4691 50.6842C27.58 50.3365 27.6805 49.9746 27.7715 49.602ZM18.5594 48.9122C19.0309 48.7968 19.5067 49.0855 19.622 49.557C19.7126 49.9276 19.8129 50.2877 19.9234 50.6339C20.0711 51.0963 19.8159 51.5909 19.3535 51.7386C18.8911 51.8863 18.3966 51.6311 18.2489 51.1687C18.1247 50.7796 18.0137 50.3801 17.9145 49.9747C17.7992 49.5032 18.0879 49.0275 18.5594 48.9122ZM28.3596 45.9824C28.407 45.4993 28.837 45.146 29.3201 45.1934C29.8031 45.2408 30.1563 45.6708 30.1089 46.1539C30.0697 46.5535 30.0235 46.9578 29.9692 47.3631C29.9046 47.8442 29.4623 48.1819 28.9812 48.1174C28.5001 48.0528 28.1624 47.6105 28.2269 47.1294C28.2783 46.7466 28.3222 46.363 28.3596 45.9824ZM18.0756 45.1643C18.5587 45.1171 18.9887 45.4704 19.0359 45.9535C19.073 46.3325 19.1166 46.7144 19.1678 47.0956C19.2323 47.5767 18.8947 48.019 18.4136 48.0836C17.9325 48.1481 17.4902 47.8104 17.4257 47.3293C17.3715 46.9255 17.3254 46.5227 17.2865 46.1247C17.2392 45.6416 17.5925 45.2116 18.0756 45.1643ZM29.4393 41.4044C29.9247 41.4094 30.314 41.8071 30.309 42.2924C30.305 42.6727 30.2966 43.0761 30.2819 43.4966C30.265 43.9817 29.858 44.3611 29.3729 44.3442C28.8878 44.3273 28.5082 43.9204 28.5252 43.4352C28.5393 43.0302 28.5474 42.6412 28.5513 42.2741C28.5563 41.7888 28.9539 41.3993 29.4393 41.4044ZM17.9608 41.3903C18.4461 41.3859 18.8432 41.7757 18.8477 42.2611C18.8511 42.6269 18.8588 43.0146 18.8725 43.4183C18.889 43.9034 18.5091 44.31 18.0239 44.3265C17.5388 44.343 17.1322 43.9632 17.1157 43.478C17.1015 43.0587 17.0934 42.6565 17.0899 42.2773C17.0854 41.7919 17.4754 41.3948 17.9608 41.3903ZM30.2328 39.024C30.2329 39.0242 30.2329 39.0244 30.233 39.0247C30.233 39.0253 30.233 39.0262 30.2331 39.0272C30.2332 39.0293 30.2335 39.0321 30.2338 39.0358C30.2343 39.0431 30.2349 39.0537 30.2358 39.0674C30.2376 39.0947 30.2401 39.1345 30.2431 39.1859C30.2492 39.2888 30.2573 39.4386 30.2658 39.6292C30.2875 40.1141 29.9121 40.5249 29.4272 40.5466C28.9423 40.5684 28.5316 40.1928 28.5098 39.7079C28.5017 39.526 28.4939 39.3844 28.4883 39.2892C28.4855 39.2415 28.4832 39.2054 28.4817 39.1817C28.4809 39.1699 28.4803 39.1611 28.48 39.1555C28.4798 39.1527 28.4797 39.1507 28.4796 39.1495C28.4796 39.1489 28.4795 39.1485 28.4795 39.1483C28.4803 39.1482 28.5056 39.1465 29.3561 39.0859L30.2328 39.0235V39.024ZM18.0476 39.0859C18.9016 39.1487 18.9236 39.1503 18.9241 39.1503C18.9241 39.1506 18.9241 39.1509 18.924 39.1515C18.9239 39.1527 18.9239 39.1547 18.9237 39.1574C18.9233 39.163 18.9226 39.1718 18.9219 39.1835C18.9203 39.2071 18.9179 39.2429 18.915 39.2903C18.9092 39.3851 18.9014 39.5261 18.8929 39.7073C18.8702 40.1922 18.4587 40.5669 17.9738 40.5442C17.489 40.5216 17.1143 40.1101 17.1369 39.6253C17.1458 39.4353 17.1542 39.2861 17.1605 39.1835C17.1636 39.1322 17.1662 39.0926 17.168 39.0653C17.169 39.0517 17.1697 39.0412 17.1702 39.0338C17.1705 39.0302 17.1706 39.0273 17.1708 39.0253C17.1709 39.0242 17.171 39.0234 17.171 39.0227V39.0215C17.171 39.0215 17.1755 39.0218 18.0476 39.0859Z" fill="#58BA66"></path><path d="M22.2477 47.3501C22.2929 46.8668 22.7213 46.5117 23.2046 46.5568C23.3755 46.5728 23.5546 46.5826 23.7419 46.5856C23.9302 46.5885 24.1099 46.5843 24.2814 46.5734C24.7659 46.5428 25.1835 46.9107 25.2141 47.3951C25.2447 47.8795 24.8768 48.297 24.3924 48.3277C24.1728 48.3416 23.9467 48.3468 23.7139 48.3431C23.4831 48.3395 23.2588 48.3273 23.041 48.307C22.5577 48.2618 22.2026 47.8334 22.2477 47.3501ZM27.1486 45.3087C27.4739 44.9485 28.0297 44.9201 28.39 45.2453C28.7503 45.5706 28.7787 46.1264 28.4534 46.4867C28.138 46.836 27.7711 47.1535 27.3461 47.4234C26.9363 47.6836 26.3931 47.5623 26.1329 47.1525C25.8727 46.7427 25.994 46.1996 26.4037 45.9394C26.6872 45.7594 26.9336 45.5469 27.1486 45.3087ZM19.0946 45.1885C19.4521 44.8601 20.0081 44.8837 20.3364 45.2412C20.5541 45.4782 20.8028 45.6919 21.088 45.8755C21.4961 46.1382 21.614 46.6821 21.3513 47.0902C21.0886 47.4984 20.5448 47.6162 20.1366 47.3536C19.7188 47.0846 19.3558 46.7722 19.0418 46.4303C18.7135 46.0728 18.7371 45.5168 19.0946 45.1885ZM28.4386 42.229C28.5119 41.7492 28.9604 41.4196 29.4402 41.4929C29.92 41.5663 30.2496 42.0147 30.1763 42.4945C30.1117 42.917 30.02 43.3569 29.8913 43.7975C29.7553 44.2635 29.2673 44.5309 28.8014 44.3949C28.3354 44.2589 28.068 43.7709 28.204 43.305C28.3077 42.9497 28.3839 42.5869 28.4386 42.229ZM17.9846 41.4767C18.4631 41.3953 18.917 41.7172 18.9984 42.1957C19.0585 42.5492 19.1406 42.9078 19.2504 43.2594C19.3951 43.7228 19.1367 44.2157 18.6734 44.3604C18.21 44.505 17.7171 44.2467 17.5725 43.7834C17.4359 43.346 17.3368 42.9097 17.2655 42.4905C17.1841 42.012 17.506 41.5581 17.9846 41.4767ZM28.4829 39.2112L28.483 39.2116V39.2119L30.2225 38.959V38.9591L30.2226 38.9594C30.2227 38.9596 30.2226 38.9598 30.2226 38.96C30.2227 38.9604 30.2228 38.9609 30.2229 38.9614C30.223 38.9624 30.2232 38.9636 30.2234 38.965C30.2239 38.968 30.2244 38.9718 30.225 38.9765C30.2263 38.9858 30.228 38.9986 30.2301 39.0147C30.2342 39.0469 30.2397 39.0923 30.246 39.1496C30.2586 39.2644 30.2742 39.4277 30.2878 39.63C30.3201 40.1143 29.9537 40.5331 29.4694 40.5655C28.9851 40.5978 28.5662 40.2315 28.5338 39.7471C28.5221 39.5721 28.5088 39.4338 28.4987 39.3413C28.4936 39.2951 28.4894 39.2604 28.4866 39.2384C28.4852 39.2275 28.4841 39.2197 28.4835 39.2152C28.4832 39.2132 28.483 39.2118 28.4829 39.2112ZM18.0443 39.0854C18.9023 39.2036 18.9148 39.2053 18.915 39.2053V39.2049C18.915 39.2048 18.9151 39.2047 18.9151 39.2046L18.9118 39.2311C18.9092 39.2527 18.9053 39.287 18.9007 39.3326C18.8915 39.4241 18.8795 39.5612 18.8698 39.7349C18.8425 40.2195 18.4274 40.5903 17.9428 40.563C17.4582 40.5357 17.0874 40.1207 17.1147 39.6361C17.1261 39.4343 17.1401 39.2713 17.1517 39.1566C17.1574 39.0993 17.1626 39.0539 17.1664 39.0217C17.1684 39.0056 17.17 38.9928 17.1712 38.9834C17.1718 38.9787 17.1723 38.9748 17.1727 38.9718C17.1729 38.9703 17.1731 38.9691 17.1733 38.968C17.1734 38.9675 17.1733 38.9671 17.1734 38.9667C17.1734 38.9665 17.1735 38.9662 17.1735 38.9661V38.9656C17.1735 38.9656 17.1783 38.9662 18.0443 39.0854Z" fill="#58BA66"></path></g><defs><clipPath id="clip0_2008_151"><rect width="60" height="60" fill="white" transform="translate(0 0.296875)"></rect></clipPath></defs></svg>