<svg xmlns="http://www.w3.org/2000/svg" width="60" height="61" viewBox="0 0 60 61" fill="none"><g clip-path="url(#clip0_2004_91)"><path d="M11.2082 31.7434C11.1462 31.7432 11.0845 31.7352 11.0245 31.7194C6.86569 30.6009 3.30864 28.9948 0.73668 27.0787C0.586799 26.9669 0.487452 26.8002 0.460495 26.6152C0.433537 26.4302 0.481176 26.242 0.592932 26.0921C0.704689 25.9423 0.871408 25.8429 1.05641 25.816C1.24142 25.789 1.42956 25.8366 1.57944 25.9484C4.00906 27.7608 7.40169 29.2837 11.3905 30.3581C11.5557 30.4023 11.6991 30.5051 11.7942 30.6473C11.8892 30.7895 11.9292 30.9614 11.9069 31.1309C11.8845 31.3005 11.8012 31.4561 11.6726 31.5688C11.544 31.6815 11.3792 31.7435 11.2082 31.7434Z" fill="#58BA66"></path><path d="M30.9603 60.0326H5.71422C5.20041 60.0412 4.69118 59.9348 4.22375 59.7213C3.75633 59.5078 3.34253 59.1925 3.01261 58.7985C2.67983 58.3899 2.45185 57.9062 2.34845 57.3895C2.24505 56.8728 2.26937 56.3386 2.4193 55.8334C4.27487 49.5207 6.80267 40.9212 4.30258 39.0069C3.58948 38.4611 2.82189 37.9847 2.08013 37.5243C1.64188 37.256 1.20823 36.9802 0.779354 36.6971C0.626227 36.5923 0.520612 36.4313 0.485437 36.2492C0.450261 36.067 0.488364 35.8783 0.591474 35.724C0.694584 35.5697 0.854379 35.4624 1.03617 35.4252C1.21796 35.388 1.40707 35.4241 1.56245 35.5255C1.97161 35.7989 2.39534 36.0615 2.82283 36.3269C3.59371 36.8051 4.39137 37.2998 5.15896 37.8879C8.42758 40.3908 5.95756 48.7865 3.78161 56.1965C3.68557 56.5044 3.67149 56.8321 3.74077 57.1471C3.81006 57.4622 3.96031 57.7537 4.17669 57.9929C4.36677 58.1966 4.5976 58.358 4.85416 58.4666C5.11073 58.5752 5.38728 58.6286 5.66584 58.6233H30.9603C31.3593 58.625 31.7485 58.4993 32.0712 58.2646C32.3939 58.0299 32.6334 57.6984 32.7548 57.3183C33.373 55.2762 34.7809 52.787 35.4569 52.2566C37.505 50.6514 38.9477 50.8337 40.6191 51.0465C41.5407 51.1855 42.4735 51.2363 43.4048 51.1982C46.2548 51.0394 48.5036 50.045 49.7372 48.398C50.7364 47.0634 51.0267 45.3393 50.5762 43.4119C50.4583 42.9088 50.3136 42.4306 50.1736 41.9678C49.6348 40.1856 49.1251 38.5019 50.6904 36.8047C51.7337 35.7049 52.2227 34.6649 52.1523 33.7066C52.0891 33.0352 51.7742 32.4126 51.271 31.9637C51.1624 31.8787 51.0812 31.7637 51.0374 31.6329C50.9936 31.5022 50.9891 31.3614 51.0245 31.2281C51.0599 31.0949 51.1337 30.9749 51.2366 30.8831C51.3395 30.7913 51.4671 30.7318 51.6036 30.7118C52.4689 30.585 54.0783 29.3364 54.4433 27.9369C54.7087 26.9194 54.2831 25.9724 53.1782 25.1221C53.1041 25.0658 53.0419 24.9952 52.9955 24.9146C52.949 24.8339 52.9191 24.7447 52.9076 24.6523C52.6728 22.6671 55.5712 21.3429 56.8245 20.8665C57.5762 20.5804 58.0107 20.2046 58.1093 19.7494C58.2437 19.1321 57.7805 18.3209 57.2938 17.8281C55.0081 15.4962 52.8677 13.026 50.8848 10.4317C50.4414 9.84424 50.1559 9.15294 50.0558 8.42378C49.9556 7.69462 50.044 6.95196 50.3127 6.26673C50.9031 4.69196 51.1046 2.99789 50.8999 1.32857C50.8858 1.14413 50.9448 0.961556 51.0642 0.82025C51.1835 0.678944 51.3537 0.59024 51.5379 0.573282C51.7221 0.556324 51.9055 0.612473 52.0487 0.729609C52.1919 0.846746 52.2832 1.01548 52.3031 1.19938C52.53 3.09541 52.2942 5.01821 51.6158 6.8032C51.4387 7.26393 51.3828 7.76236 51.4533 8.25089C51.5238 8.73941 51.7183 9.2017 52.0184 9.59359C53.9606 12.1347 56.0572 14.554 58.2963 16.8378C59.0446 17.5951 59.7502 18.8367 59.4867 20.0487C59.3458 20.7021 58.8544 21.6031 57.3258 22.1842C56.2799 22.5255 55.3291 23.1084 54.5504 23.8857C54.4821 23.9745 54.4495 24.0856 54.4589 24.1972C54.4684 24.3088 54.5193 24.4129 54.6016 24.4889C55.1359 24.948 55.5318 25.5469 55.7447 26.2184C55.9576 26.89 55.9792 27.6075 55.807 28.2907C55.5754 29.0263 55.1995 29.7084 54.7014 30.2972C54.2033 30.886 53.5929 31.3696 52.9058 31.7199C53.2807 32.28 53.5053 32.9271 53.5578 33.599C53.6593 34.9698 53.0411 36.3706 51.7206 37.7635C50.7542 38.812 50.9887 39.7834 51.5242 41.5559C51.6703 42.0402 51.822 42.54 51.9498 43.0873C52.498 45.4333 52.1236 47.5604 50.8665 49.2412C49.3792 51.2274 46.7575 52.4215 43.4846 52.6038C42.4681 52.6496 41.4495 52.5958 40.4434 52.4431C38.865 52.2425 37.9132 52.1223 36.3278 53.3643C35.9792 53.6513 34.6836 55.8137 34.1049 57.7251C33.8948 58.3945 33.4764 58.9793 32.9108 59.3943C32.3452 59.8094 31.6618 60.033 30.9603 60.0326Z" fill="#58BA66"></path><path d="M50.1712 13.2408C49.7208 12.4011 49.1965 11.6033 48.6046 10.8567C48.0845 10.1591 47.495 9.36849 47.4438 8.99785C47.356 8.30971 47.4211 7.61069 47.6345 6.95062C47.9085 5.89063 48.0854 4.8079 48.163 3.71582C48.1858 2.83177 48.0767 1.94925 47.8393 1.09736C47.7948 0.915831 47.68 0.759433 47.5201 0.662569C47.3603 0.565706 47.1685 0.536311 46.9869 0.580852C46.8054 0.625392 46.649 0.74022 46.5522 0.900073C46.4553 1.05993 46.4259 1.25171 46.4704 1.43324C46.668 2.14081 46.7648 2.8727 46.7579 3.60731C46.6854 4.62311 46.5206 5.6302 46.2656 6.61614C46.0082 7.44784 45.934 8.32545 46.0481 9.18857C46.1487 9.91811 46.7631 10.7425 47.4748 11.6971C48.014 12.3742 48.4928 13.0973 48.9057 13.858C49.0033 14.0686 49.0133 14.3093 48.9336 14.5273C48.8539 14.7453 48.691 14.9227 48.4806 15.0207C46.8643 15.9515 45.6454 17.4425 45.0546 19.2115C44.8828 19.6836 44.8087 20.1856 44.8367 20.6873C44.8647 21.1889 44.9943 21.6796 45.2176 22.1296C45.8419 23.2744 46.5005 25.7407 46.733 27.3806C36.3419 26.5351 29.3964 25.5486 26.0634 24.4484C26.1283 23.5779 26.2635 22.6633 26.3988 21.7637C26.8174 18.9794 27.2505 16.1007 25.0431 15.2941C21.7472 14.0896 20.461 16.7358 19.5215 18.6675C18.9164 19.9119 18.3471 21.0872 17.4653 21.2685C17.1163 21.34 16.9542 21.2253 16.5225 19.6488C16.3594 18.983 16.1394 18.3325 15.8649 17.7044C14.9878 15.84 13.3309 15.0977 11.4345 15.7197C11.0056 15.8505 10.6117 16.0766 10.2825 16.3811C9.9533 16.6856 9.6972 17.0606 9.53338 17.478C8.81135 19.2833 9.65364 21.6805 10.1995 22.6962C12.0243 26.1947 13.5275 29.8518 14.6904 33.6224C15.0728 34.7785 15.4031 35.7767 15.7385 36.6289C17.0745 40.0182 19.3416 42.0312 22.668 42.7828C25.3851 43.4812 28.0629 44.3242 30.6901 45.3082C35.3093 46.9303 39.7425 48.4867 42.8683 48.4867C43.9072 48.5456 44.9385 48.2779 45.8175 47.721C47.588 46.4502 47.1615 44.9963 46.71 43.4593C46.2074 41.7488 45.5826 39.626 46.882 36.1887C46.9007 36.1394 46.9928 35.8702 47.0107 35.8096C47.7349 33.3901 48.1425 30.8868 48.2231 28.3625C48.2231 28.291 48.2156 27.9693 48.2095 27.8927C48.0714 26.1419 47.2737 22.9559 46.4549 21.4569C46.1978 20.8787 46.1784 20.2225 46.4009 19.63C46.8759 18.2236 47.8414 17.0353 49.1208 16.2825C49.3897 16.1519 49.6301 15.9695 49.8284 15.7459C50.0267 15.5223 50.179 15.2618 50.2765 14.9793C50.3741 14.6968 50.415 14.3979 50.3969 14.0996C50.3789 13.8012 50.3022 13.5094 50.1712 13.2408ZM40.1423 28.1929C41.0357 28.2843 41.9629 28.3747 42.9237 28.4639C42.8165 29.2297 42.6911 29.9928 42.5479 30.7526C41.6835 30.6399 40.7666 30.513 39.8233 30.3768C39.9553 29.6087 40.0704 28.8468 40.1423 28.1929ZM39.5734 31.7668C40.5068 31.9021 41.4167 32.0285 42.2769 32.1426C42.089 33.0601 41.9109 33.8502 41.7888 34.3731C41.1194 34.2176 40.4265 34.0466 39.7021 33.8671L39.1802 33.7365C39.2816 33.2522 39.4245 32.5527 39.5734 31.7668ZM35.5038 27.6625C36.5223 27.7925 37.6018 27.9198 38.7424 28.0444C38.6733 28.6701 38.5591 29.4171 38.43 30.1696C37.3842 30.0111 36.3398 29.8445 35.2966 29.6698C35.3779 28.9736 35.4517 28.2779 35.5038 27.6625ZM35.1247 31.0721C36.1361 31.2412 37.1635 31.4051 38.1782 31.5592C38.0608 32.1753 37.9382 32.7904 37.8103 33.4044C36.884 33.1836 35.9111 32.9647 34.9002 32.7656C34.9584 32.3385 35.0387 31.7433 35.1247 31.0721ZM30.8968 26.9851C31.8752 27.1523 32.945 27.3158 34.1063 27.4755C34.0593 28.0646 33.9855 28.7439 33.9057 29.4307C32.8111 29.239 31.7593 29.0427 30.7869 28.8482C30.8203 28.2117 30.8578 27.5667 30.8959 26.9865L30.8968 26.9851ZM30.7136 30.2683C31.664 30.4562 32.6824 30.6469 33.7347 30.832C33.6632 31.3912 33.5892 31.9501 33.5125 32.5086C32.5413 32.351 31.5818 32.1286 30.6403 31.8429C30.6563 31.4652 30.6817 30.9086 30.7127 30.2697L30.7136 30.2683ZM29.5016 26.7324C29.4636 27.2961 29.426 27.9251 29.3912 28.5565C28.3634 28.3461 27.3474 28.0813 26.3476 27.763C26.2442 27.3532 26.162 26.9383 26.1015 26.52C26.0719 26.3246 26.0545 26.1212 26.0418 25.914C27.1804 26.2449 28.3348 26.5185 29.5007 26.7338L29.5016 26.7324ZM29.317 29.9794C29.2926 30.4759 29.27 30.9311 29.2536 31.306C28.3481 30.9123 27.5772 30.2626 27.0358 29.4368C27.6893 29.6139 28.4616 29.7962 29.3161 29.9808L29.317 29.9794ZM44.9963 46.5733C42.8824 48.0925 36.6524 45.9053 31.1575 43.9765C28.4796 42.9731 25.7494 42.115 22.979 41.4059C20.1031 40.7562 18.2184 39.0735 17.0496 36.1103C16.7287 35.2966 16.4041 34.3158 16.0283 33.1799C14.8409 29.3317 13.3055 25.5997 11.4411 22.03C10.9511 21.1192 10.3555 19.2199 10.8421 18.0028C10.9294 17.7761 11.0682 17.5728 11.2476 17.409C11.4269 17.2452 11.642 17.1254 11.8756 17.059C12.1479 16.9654 12.4333 16.9156 12.7212 16.9115C13.5292 16.9115 14.1573 17.3775 14.5932 18.3048C14.8334 18.8595 15.0259 19.4336 15.1687 20.0209C15.5144 21.2841 15.9898 23.0128 17.7552 22.6492C19.3143 22.3269 20.0669 20.78 20.7941 19.2838C21.8605 17.0909 22.5609 15.8869 24.5649 16.6179C25.6125 17.0007 25.4213 18.8211 25.0102 21.5542C24.8297 22.631 24.7043 23.7163 24.6344 24.8059C24.6217 24.8759 24.6196 24.9475 24.6283 25.0182C24.6035 25.5903 24.6298 26.1635 24.7068 26.731C24.7909 27.2998 24.9165 27.8617 25.0826 28.4122C25.0942 28.4868 25.1178 28.559 25.1526 28.626C26.1593 31.664 28.4743 33.085 33.3598 33.9137C35.5339 34.2824 42.283 35.9271 42.3487 35.9412C43.3247 36.162 44.313 36.3245 45.3082 36.4278C44.5003 38.8404 44.5187 41.4533 45.3604 43.8543C45.8212 45.4313 45.9142 45.9147 44.9963 46.5733ZM45.7597 35.0463C44.8881 34.9775 44.0218 34.853 43.1661 34.6737C43.2953 34.1199 43.4832 33.2879 43.6829 32.3179C44.6825 32.4391 45.5826 32.5368 46.337 32.6049C46.1779 33.4262 45.9853 34.2407 45.7597 35.0463ZM46.5667 31.2106C45.6929 31.1306 44.8205 31.0367 43.9497 30.9288C44.0906 30.1645 44.2231 29.3673 44.3297 28.5898C45.1311 28.6603 45.9556 28.7307 46.7983 28.7979C46.7617 29.6055 46.6844 30.4108 46.5667 31.2106Z" fill="#58BA66"></path></g><defs><clipPath id="clip0_2004_91"><rect width="60" height="60" fill="white" transform="translate(0 0.296875)"></rect></clipPath></defs></svg>