<svg xmlns="http://www.w3.org/2000/svg" width="60" height="61" viewBox="0 0 60 61" fill="none"><g clip-path="url(#clip0_2004_85)"><path d="M28.4532 26.3351C28.3078 26.3353 28.1659 26.291 28.0464 26.2084C27.9269 26.1258 27.8354 26.0086 27.7841 25.8727C27.7329 25.7367 27.7244 25.5883 27.7597 25.4473C27.795 25.3063 27.8725 25.1795 27.9817 25.0837L28.7617 24.3994C29.1159 24.0898 29.571 23.9203 30.0413 23.923C30.5117 23.9256 30.9649 24.1001 31.3155 24.4137L32.0722 25.0885C32.2084 25.2161 32.2892 25.3919 32.2974 25.5783C32.3055 25.7647 32.2405 25.9469 32.116 26.086C31.9916 26.225 31.8177 26.3098 31.6315 26.3223C31.4454 26.3348 31.2617 26.2739 31.1198 26.1528L30.366 25.4775C30.2756 25.3966 30.1588 25.3516 30.0375 25.3509C29.9162 25.3502 29.7988 25.3939 29.7075 25.4737L28.9275 26.158C28.7963 26.273 28.6276 26.336 28.4532 26.3351ZM30.0246 30.8661C29.8352 30.8661 29.6535 30.7908 29.5195 30.6569C29.3856 30.5229 29.3103 30.3412 29.3103 30.1518V27.0966C29.3103 26.9071 29.3856 26.7254 29.5195 26.5915C29.6535 26.4575 29.8352 26.3823 30.0246 26.3823C30.214 26.3823 30.3957 26.4575 30.5297 26.5915C30.6636 26.7254 30.7389 26.9071 30.7389 27.0966V30.1518C30.7389 30.3412 30.6636 30.5229 30.5297 30.6569C30.3957 30.7908 30.214 30.8661 30.0246 30.8661ZM47.0951 24.6289C46.9497 24.6292 46.8077 24.585 46.6881 24.5024C46.5685 24.4198 46.4769 24.3027 46.4256 24.1667C46.3744 24.0307 46.3658 23.8822 46.4011 23.7412C46.4364 23.6002 46.5139 23.4733 46.6232 23.3775L47.4032 22.6932C47.7572 22.3836 48.2122 22.2142 48.6825 22.2168C49.1528 22.2195 49.6059 22.394 49.9565 22.7075L50.7103 23.3823C50.7827 23.4441 50.842 23.5198 50.8847 23.6048C50.9274 23.6899 50.9527 23.7826 50.9591 23.8776C50.9654 23.9726 50.9528 24.0679 50.9218 24.1579C50.8908 24.2479 50.8421 24.3308 50.7787 24.4017C50.7152 24.4726 50.6382 24.5302 50.5522 24.5709C50.4661 24.6117 50.3728 24.6348 50.2777 24.639C50.1826 24.6432 50.0877 24.6283 49.9984 24.5953C49.9091 24.5622 49.8274 24.5117 49.7579 24.4466L49.0041 23.7713C48.9138 23.6906 48.7971 23.6457 48.676 23.645C48.5549 23.6443 48.4377 23.6879 48.3465 23.7675L47.5665 24.4518C47.4361 24.5661 47.2685 24.6291 47.0951 24.6289Z" fill="#58BA66"></path><path d="M48.665 29.1595C48.4756 29.1595 48.2939 29.0842 48.1599 28.9503C48.026 28.8163 47.9507 28.6346 47.9507 28.4452V25.3899C47.9507 25.2005 48.026 25.0188 48.1599 24.8849C48.2939 24.7509 48.4756 24.6757 48.665 24.6757C48.8545 24.6757 49.0361 24.7509 49.1701 24.8849C49.3041 25.0188 49.3793 25.2005 49.3793 25.3899V28.4452C49.3793 28.6346 49.3041 28.8163 49.1701 28.9503C49.0361 29.0842 48.8545 29.1595 48.665 29.1595ZM9.81692 24.6076C9.67156 24.6078 9.52959 24.5636 9.40998 24.481C9.29036 24.3984 9.19879 24.2813 9.1475 24.1453C9.09621 24.0093 9.08764 23.8609 9.12294 23.7199C9.15823 23.5788 9.2357 23.4519 9.34502 23.3561L10.125 22.6718C10.479 22.3623 10.9338 22.1929 11.404 22.1953C11.8741 22.1978 12.3272 22.372 12.6779 22.6852L13.4322 23.3614C13.5055 23.4229 13.5657 23.4985 13.6092 23.5838C13.6527 23.6691 13.6787 23.7622 13.6855 23.8577C13.6923 23.9532 13.6799 24.0491 13.6489 24.1396C13.6179 24.2302 13.5691 24.3137 13.5052 24.385C13.4414 24.4563 13.3638 24.5141 13.2772 24.5548C13.1906 24.5956 13.0967 24.6185 13.001 24.6223C12.9054 24.626 12.8099 24.6105 12.7204 24.5767C12.6308 24.5428 12.549 24.4913 12.4798 24.4252L11.725 23.7495C11.6347 23.6685 11.5179 23.6235 11.3966 23.6228C11.2753 23.6222 11.158 23.6661 11.0669 23.7461L10.2874 24.4304C10.1572 24.5445 9.99003 24.6075 9.81692 24.6076Z" fill="#58BA66"></path><path d="M11.3833 29.1393C11.1939 29.1393 11.0122 29.064 10.8783 28.93C10.7443 28.7961 10.6691 28.6144 10.6691 28.425V25.3697C10.6691 25.1803 10.7443 24.9986 10.8783 24.8647C11.0122 24.7307 11.1939 24.6554 11.3833 24.6554C11.5728 24.6554 11.7545 24.7307 11.8884 24.8647C12.0224 24.9986 12.0976 25.1803 12.0976 25.3697V28.425C12.0976 28.6144 12.0224 28.7961 11.8884 28.93C11.7545 29.064 11.5728 29.1393 11.3833 29.1393ZM56.961 0.296875H3.11478C2.29418 0.297883 1.50748 0.624311 0.927227 1.20456C0.346975 1.78481 0.0205471 2.57151 0.019539 3.39211V6.2564C0.0177498 7.23147 0.325085 8.18201 0.897389 8.97147C1.46969 9.76092 2.27751 10.3486 3.20478 10.6502C4.95636 11.0505 6.74067 11.291 8.53573 11.3688L8.91668 14.9126C8.9625 15.3477 9.16795 15.7505 9.49336 16.043C9.81877 16.3355 10.241 16.497 10.6786 16.4964H12.0914C12.529 16.497 12.9513 16.3355 13.2767 16.043C13.6021 15.7505 13.8075 15.3477 13.8533 14.9126L14.1995 11.6802C18.2472 11.8412 22.8514 11.9254 27.1881 11.9507L27.5562 15.3888C27.6021 15.8239 27.8076 16.2266 28.133 16.5191C28.4584 16.8115 28.8806 16.9731 29.3181 16.9726H30.73C31.1676 16.9734 31.59 16.812 31.9155 16.5194C32.2409 16.2269 32.4463 15.824 32.4919 15.3888L32.86 11.9507C37.1962 11.9259 41.8014 11.8416 45.8481 11.6807L46.1943 14.9126C46.2401 15.3477 46.4456 15.7505 46.771 16.043C47.0964 16.3355 47.5187 16.497 47.9562 16.4964H49.3691C49.8067 16.497 50.229 16.3354 50.5544 16.0428C50.8799 15.7502 51.0853 15.3473 51.131 14.9121L51.5119 11.3712C53.3174 11.2936 55.112 11.0522 56.8738 10.6502C57.8012 10.3485 58.609 9.76061 59.1812 8.97097C59.7534 8.18133 60.0606 7.23062 60.0586 6.25545V3.39211C60.0576 2.5711 59.7308 1.78404 59.1501 1.20372C58.5693 0.623403 57.782 0.297253 56.961 0.296875ZM12.4319 14.7612C12.423 14.8456 12.3831 14.9238 12.32 14.9806C12.2568 15.0374 12.1749 15.0688 12.09 15.0688H10.6772C10.5923 15.0688 10.5105 15.0374 10.4473 14.9807C10.3842 14.924 10.3443 14.846 10.3353 14.7616L9.98287 11.4693C10.8619 11.5245 11.7924 11.5745 12.7686 11.6197L12.4319 14.7612ZM31.071 15.2374C31.0621 15.3218 31.0223 15.4 30.9591 15.4567C30.8959 15.5134 30.814 15.5447 30.7291 15.5445H29.3172C29.2322 15.5445 29.1503 15.5131 29.0872 15.4563C29.0241 15.3995 28.9842 15.3213 28.9753 15.2369L28.6238 11.9574H31.4224L31.071 15.2374ZM49.7105 14.7612C49.7016 14.8456 49.6617 14.9238 49.5986 14.9806C49.5354 15.0374 49.4535 15.0688 49.3686 15.0688H47.9557C47.8708 15.0688 47.7889 15.0374 47.7258 14.9806C47.6626 14.9238 47.6228 14.8456 47.6138 14.7612L47.2776 11.6207C48.2524 11.5759 49.1824 11.5254 50.0624 11.4707L49.7105 14.7612ZM58.6276 6.2564C58.6313 6.92706 58.4224 7.58165 58.0308 8.12613C57.6392 8.67061 57.0851 9.07698 56.4481 9.28687C54.0476 10.0312 43.4281 10.5316 30.0229 10.5316C16.6357 10.5316 6.02811 10.0312 3.62763 9.28687C2.99065 9.07698 2.43657 8.67061 2.04497 8.12613C1.65338 7.58165 1.44442 6.92706 1.44811 6.2564V3.39211C1.44811 2.95009 1.62371 2.52616 1.93627 2.2136C2.24883 1.90104 2.67275 1.72545 3.11478 1.72545H56.961C57.403 1.72545 57.8269 1.90104 58.1395 2.2136C58.452 2.52616 58.6276 2.95009 58.6276 3.39211V6.2564ZM57.4467 35.294C53.3038 30.9159 40.5067 34.164 33.4148 37.2397C32.3438 37.7022 31.1895 37.9408 30.0229 37.9408C28.8563 37.9408 27.702 37.7022 26.631 37.2397C19.5391 34.164 6.74287 30.9164 2.59906 35.294C-0.481413 38.5493 -0.683318 44.3916 2.08525 49.2631C1.99906 51.5602 2.31335 54.0812 2.60906 54.7869C3.20668 56.2259 6.52573 56.9269 8.56859 56.9269C8.76859 56.9269 8.95716 56.9202 9.12906 56.9069C9.52558 56.8845 9.91639 56.8019 10.2881 56.6621C11.4786 57.9031 14.7029 58.4278 16.8595 58.4278C17.1529 58.4278 17.4262 58.4178 17.6724 58.3993C18.2476 58.3733 18.8142 58.2493 19.3476 58.0326C19.7626 58.5961 20.3791 58.9775 21.0686 59.0973C22.7065 59.3913 24.3678 59.5357 26.0319 59.5288C26.77 59.5288 27.4967 59.5007 28.1833 59.444C28.8586 59.4027 29.503 59.147 30.0229 58.714C30.5426 59.1477 31.1873 59.4041 31.8629 59.4459C32.55 59.5026 33.2762 59.5307 34.0148 59.5307C35.6789 59.5376 37.3402 59.3932 38.9781 59.0993C39.6676 58.9795 40.2841 58.598 40.6991 58.0345C41.2325 58.2512 41.7991 58.3752 42.3743 58.4012C42.6205 58.4197 42.8938 58.4297 43.1872 58.4297C45.3448 58.4297 48.5681 57.9059 49.7586 56.664C50.1303 56.8038 50.5211 56.8864 50.9176 56.9088C51.0895 56.9221 51.2776 56.9288 51.4781 56.9288C53.521 56.9288 56.84 56.2278 57.4376 54.7888C57.7314 54.0812 58.0457 51.5602 57.9614 49.265C60.7291 44.3916 60.5272 38.5493 57.4467 35.294ZM6.06573 55.1988C4.60668 54.855 3.99335 54.4045 3.92525 54.2402C3.51049 53.2402 3.18383 47.9169 4.02049 46.4816C4.58525 45.5164 5.71525 45.6159 6.17525 45.7035C6.99616 45.8927 7.7494 46.3035 8.35288 46.8913C8.95636 47.4791 9.38692 48.2212 9.59764 49.0369C9.65386 49.2787 9.66724 49.5285 9.63716 49.775C9.43605 51.6318 9.46115 53.5061 9.71192 55.3569C9.24525 55.5326 7.82287 55.6131 6.06716 55.1997L6.06573 55.1988ZM14.4886 56.8064C12.2776 56.4473 11.3457 55.8293 11.2414 55.5859C10.761 54.4697 10.8014 48.4278 11.8129 46.5078C12.1938 45.7878 13.3562 45.4959 14.7095 45.7835C16.5438 46.1726 18.4595 47.5793 18.7357 49.8626C18.7514 50.0078 18.7529 50.1542 18.74 50.2997C18.6092 52.3254 18.6177 54.3576 18.7653 56.3821C18.7738 56.4973 18.7953 56.605 18.8129 56.7154C18.3638 56.9593 16.73 57.1707 14.49 56.8073L14.4886 56.8064ZM29.06 57.6559C28.783 57.8967 28.427 58.0269 28.06 58.0216C25.8122 58.1963 23.5513 58.0866 21.331 57.695C21.0023 57.6338 20.7063 57.4573 20.4962 57.1972C20.2861 56.9371 20.1759 56.6106 20.1853 56.2764C20.1038 55.1812 19.8795 51.3678 20.4048 48.324C20.4997 47.5802 20.8674 46.8982 21.4367 46.4102C22.006 45.9223 22.7362 45.6631 23.4857 45.6831C24.6754 45.6708 25.8351 46.0557 26.7814 46.7767C27.7278 47.4977 28.4066 48.5138 28.7105 49.664C29.51 53.0683 29.4167 56.8835 29.0633 57.6569L29.06 57.6559ZM39.8524 56.275C39.8617 56.6091 39.7513 56.9355 39.5413 57.1955C39.3312 57.4555 39.0353 57.6319 38.7067 57.6931C36.4862 58.0852 34.2251 58.1948 31.9772 58.0193C31.6101 58.0247 31.254 57.8945 30.9772 57.6535C30.6243 56.8807 30.531 53.0654 31.3257 49.664C31.6241 48.5351 32.2836 47.5349 33.2036 46.8157C34.1235 46.0966 35.2534 45.6982 36.421 45.6812H36.5481C37.2976 45.6612 38.0279 45.9203 38.5972 46.4083C39.1664 46.8963 39.5342 47.5783 39.6291 48.3221C40.1614 51.3688 39.9372 55.1816 39.8557 56.2778L39.8524 56.275ZM48.7991 55.584C48.6948 55.8273 47.7634 56.4454 45.5524 56.8045C43.3143 57.1683 41.6791 56.9564 41.23 56.7126C41.3832 54.5757 41.4072 52.4314 41.3019 50.2916C41.2899 50.1489 41.2915 50.0054 41.3067 49.8631C41.5814 47.5773 43.4972 46.1702 45.3334 45.7812C46.6886 45.4954 47.8519 45.785 48.23 46.5054C49.2429 48.4288 49.2833 54.4707 48.8024 55.5869L48.7991 55.584ZM56.1157 54.2383C56.0476 54.4026 55.4343 54.8531 53.9729 55.1969C52.2157 55.6107 50.7943 55.5302 50.3248 55.3569C50.5756 53.5061 50.6007 51.6318 50.3995 49.775C50.3695 49.5285 50.3828 49.2787 50.4391 49.0369C50.6498 48.2212 51.0803 47.4791 51.6838 46.8913C52.2873 46.3035 53.0405 45.8927 53.8614 45.7035C54.3205 45.6169 55.4514 45.5164 56.0162 46.4816C56.8605 47.9178 56.5338 53.2421 56.1181 54.2412L56.1157 54.2383ZM57.2514 45.7583C56.5414 44.5445 55.1767 43.9964 53.5967 44.2983C52.075 44.6257 50.7412 45.5344 49.8795 46.8307C49.7833 46.4893 49.6544 46.1579 49.4948 45.8412C48.8043 44.5278 47.0533 43.9554 45.0367 44.384C43.3176 44.7402 41.802 45.7455 40.8053 47.1907C40.4982 46.3227 39.9268 45.5728 39.1715 45.0463C38.4162 44.5198 37.5149 44.2432 36.5943 44.2554C35.1271 44.2333 33.6926 44.689 32.5072 45.5538C31.3217 46.4185 30.4498 47.6454 30.0229 49.0493C29.5979 47.6438 28.7259 46.4155 27.5392 45.5508C26.3526 44.6861 24.9162 44.2323 23.4481 44.2583C22.5275 44.2461 21.6262 44.5227 20.8709 45.0491C20.1156 45.5756 19.5442 46.3256 19.2372 47.1935C18.2403 45.7485 16.7247 44.7432 15.0057 44.3869C12.9886 43.9583 11.2381 44.5297 10.5476 45.844C10.388 46.1608 10.2591 46.4921 10.1629 46.8335C9.3012 45.5372 7.96746 44.6286 6.44573 44.3012C4.86763 44.0007 3.50097 44.5469 2.79049 45.7616C2.63558 46.0408 2.51593 46.3382 2.4343 46.6469C0.993825 42.8154 1.40382 38.6378 3.63716 36.2759C6.7243 33.0126 17.6819 34.9159 26.0629 38.5502C27.3133 39.0902 28.6609 39.3688 30.0229 39.3688C31.3849 39.3688 32.7325 39.0902 33.9829 38.5502C42.3638 34.9159 53.3219 33.0126 56.4086 36.2759C58.6438 38.6378 59.0519 42.8154 57.6114 46.6469C57.5299 46.3379 57.4101 46.0404 57.2548 45.7612L57.2514 45.7583Z" fill="#58BA66"></path></g><defs><clipPath id="clip0_2004_85"><rect width="60" height="60" fill="white" transform="translate(0 0.296875)"></rect></clipPath></defs></svg>