<svg xmlns="http://www.w3.org/2000/svg" width="60" height="61" viewBox="0 0 60 61" fill="none"><path d="M56.521 23.756C53.5686 22.9075 50.1281 22.8689 46.9019 23.1698C48.739 18.1189 49.4757 12.7198 47.0205 8.50746C44.1686 3.61365 37.5176 3.11699 32.7348 5.46508C31.9106 5.86684 31.0085 6.08354 30.0917 6.09999C29.175 6.11644 28.2657 5.93225 27.4276 5.56032C27.3595 5.53032 26.869 5.29651 26.6914 5.21937C21.96 3.16127 15.6871 3.7908 12.9395 8.50794C10.4843 12.7203 11.221 18.1194 13.0581 23.1703C9.83762 22.8708 6.40476 22.9094 3.45857 23.7565C2.4672 24.0413 1.59461 24.6392 0.971212 25.4609C0.347817 26.2827 0.00710459 27.2841 0 28.3156V50.6394C0.00163847 52.0912 0.579119 53.4832 1.60575 54.5098C2.63238 55.5364 4.02432 56.1139 5.47619 56.1156H54.5048C55.9566 56.1139 57.3486 55.5364 58.3752 54.5098C59.4018 53.4832 59.9793 52.0912 59.981 50.6394V28.3151C59.9737 27.2835 59.6327 26.282 59.0091 25.4602C58.3854 24.6384 57.5126 24.0406 56.521 23.756ZM14.1748 9.22651C16.5229 5.19794 22.2333 4.75032 26.3229 6.61794C26.4152 6.66032 26.7319 6.81365 26.7929 6.84461C27.4784 7.20587 28.0944 7.68584 28.6124 8.26222C28.9324 8.66291 29.3286 8.99624 29.7781 9.24298C30.2276 9.48973 30.7216 9.645 31.2314 9.69984C31.2549 9.70213 31.2784 9.70324 31.3019 9.70318C31.4846 9.70203 31.6599 9.63093 31.7917 9.50451C31.9236 9.37809 32.002 9.20595 32.0109 9.02348C32.0197 8.84102 31.9583 8.6621 31.8393 8.52352C31.7203 8.38493 31.5527 8.29722 31.371 8.27842C30.7979 8.23056 30.2667 7.9593 29.8919 7.52318C31.0944 7.53987 32.284 7.27435 33.3652 6.74794C37.47 4.73222 43.3862 5.10746 45.7871 9.22651C49.1562 15.006 45.7295 23.567 42.2633 29.7308C40.81 32.3127 40.141 35.597 39.5524 38.4965C38.6171 43.0851 37.9367 45.8775 35.7062 45.5032C34.4533 45.2917 33.9719 40.6937 33.621 37.3365C33.0843 32.2203 32.6219 27.8027 29.981 27.8027C27.34 27.8027 26.8781 32.2203 26.3429 37.3351C25.9914 40.6927 25.5105 45.2903 24.2571 45.5018C22.0333 45.8775 21.3467 43.0837 20.4095 38.4965C19.819 35.5984 19.15 32.3141 17.6976 29.7346C14.2324 23.567 10.8057 15.006 14.1748 9.22651ZM58.5524 50.6394C58.5511 51.7125 58.1243 52.7413 57.3655 53.5001C56.6067 54.2589 55.5779 54.6857 54.5048 54.687H5.47714C4.40403 54.6857 3.37524 54.2589 2.61644 53.5001C1.85763 52.7413 1.43078 51.7125 1.42952 50.6394V28.3151C1.43557 27.5935 1.67496 26.8932 2.11193 26.3189C2.54889 25.7446 3.15996 25.3272 3.85381 25.1289C5.73261 24.6282 7.67157 24.3894 9.61572 24.4194C10.9579 24.4255 12.2988 24.505 13.6324 24.6575C14.4548 26.6381 15.3982 28.5664 16.4571 30.4313C17.799 32.8175 18.4448 35.9851 19.0143 38.7798C19.9314 43.2822 20.7962 47.5327 24.4976 46.9103C26.821 46.5184 27.2595 42.3317 27.7667 37.4817C28.1105 34.196 28.63 29.2294 29.9838 29.2294C31.3376 29.2294 31.8571 34.1956 32.2005 37.4817C32.7076 42.3298 33.1457 46.5165 35.469 46.9103C35.6991 46.9503 35.9322 46.9708 36.1657 46.9717C39.2829 46.9717 40.0957 42.9846 40.9524 38.7813C41.5238 35.9865 42.1676 32.8189 43.5095 30.4327C44.5661 28.5688 45.5074 26.6418 46.3281 24.6627C49.6014 24.3003 53.1471 24.2732 56.1286 25.1303C56.8221 25.3287 57.4328 25.746 57.8696 26.32C58.3065 26.8939 58.546 27.5938 58.5524 28.3151V50.6394Z" fill="#58BA66"></path><path d="M29.9828 26.261C29.574 26.2603 29.1656 26.2369 28.7595 26.191C28.6662 26.1806 28.5759 26.1519 28.4938 26.1067C28.4116 26.0614 28.3392 26.0004 28.2806 25.9271C28.222 25.8539 28.1784 25.7698 28.1523 25.6796C28.1262 25.5895 28.1181 25.4952 28.1285 25.4019C28.1389 25.3087 28.1675 25.2184 28.2128 25.1362C28.2581 25.0541 28.3191 24.9816 28.3924 24.923C28.4656 24.8644 28.5497 24.8209 28.6398 24.7948C28.73 24.7687 28.8243 24.7606 28.9176 24.771C29.5044 24.8377 30.0962 24.8492 30.6852 24.8053C30.7796 24.7965 30.8747 24.8067 30.9651 24.8351C31.0556 24.8636 31.1394 24.9097 31.2118 24.9709C31.2842 25.0321 31.3437 25.107 31.3869 25.1914C31.43 25.2758 31.4559 25.368 31.4631 25.4625C31.4702 25.557 31.4585 25.652 31.4286 25.7419C31.3987 25.8318 31.3512 25.9149 31.2889 25.9863C31.2265 26.0577 31.1506 26.116 31.0655 26.1577C30.9804 26.1995 30.8879 26.2239 30.7933 26.2295C30.5233 26.25 30.2533 26.261 29.9828 26.261ZM32.618 25.941C32.4422 25.9408 32.2726 25.8757 32.1418 25.7583C32.0109 25.6409 31.928 25.4793 31.9088 25.3045C31.8896 25.1298 31.9356 24.9541 32.0379 24.8111C32.1402 24.6681 32.2917 24.5678 32.4633 24.5295C33.0641 24.3924 33.6591 24.2313 34.2471 24.0467C34.4282 23.9911 34.624 24.0096 34.7914 24.0984C34.9588 24.1871 35.0841 24.3387 35.1397 24.5198C35.1953 24.7009 35.1767 24.8967 35.088 25.0641C34.9993 25.2315 34.8477 25.3568 34.6666 25.4124C34.0428 25.6078 33.4115 25.7784 32.7742 25.9238C32.723 25.9354 32.6706 25.9411 32.618 25.941ZM26.9666 25.8519C26.9089 25.8519 26.8513 25.845 26.7952 25.8314C26.1638 25.6729 25.5379 25.4934 24.9185 25.2934C24.7414 25.2333 24.5949 25.1062 24.5105 24.9393C24.4261 24.7725 24.4104 24.5791 24.467 24.4009C24.5235 24.2226 24.6477 24.0737 24.8129 23.986C24.9781 23.8983 25.1711 23.8789 25.3504 23.9319C26.0461 24.1529 26.6137 24.3129 27.1366 24.4438C27.3062 24.4853 27.4548 24.5876 27.5542 24.7312C27.6536 24.8748 27.6969 25.0499 27.6759 25.2233C27.655 25.3966 27.5713 25.5564 27.4406 25.6722C27.3099 25.788 27.1413 25.852 26.9666 25.8519ZM36.2685 24.8572C36.0986 24.8572 35.9343 24.7967 35.805 24.6866C35.6756 24.5764 35.5898 24.4237 35.5629 24.256C35.536 24.0882 35.5698 23.9164 35.6582 23.7713C35.7466 23.6262 35.8838 23.5174 36.0452 23.4643C36.6347 23.2695 37.2623 23.0648 37.8876 22.8833C38.0695 22.8306 38.265 22.8523 38.431 22.9438C38.597 23.0352 38.7198 23.1887 38.7726 23.3707C38.8253 23.5527 38.8036 23.7482 38.7122 23.9142C38.6208 24.0801 38.4672 24.203 38.2852 24.2557C37.6842 24.4333 37.0865 24.6216 36.4923 24.8205C36.4202 24.8447 36.3446 24.8571 36.2685 24.8572ZM23.3237 24.7348C23.2482 24.7347 23.1732 24.7228 23.1014 24.6995C22.5099 24.5027 21.9137 24.3205 21.3133 24.1529C21.1305 24.1029 20.9751 23.9823 20.8813 23.8177C20.7874 23.6531 20.7628 23.458 20.8128 23.2753C20.8628 23.0925 20.9834 22.9371 21.148 22.8433C21.3125 22.7494 21.5077 22.7248 21.6904 22.7748C22.349 22.9553 22.9976 23.1624 23.5476 23.3414C23.7092 23.3942 23.8467 23.5028 23.9353 23.6478C24.024 23.7928 24.0581 23.9647 24.0314 24.1326C24.0047 24.3005 23.9191 24.4533 23.7898 24.5637C23.6605 24.6741 23.4961 24.7347 23.3261 24.7348H23.3237ZM14.1295 24.7072C13.9725 24.7074 13.8199 24.656 13.6951 24.5608C13.5704 24.4656 13.4804 24.332 13.4392 24.1806C13.3979 24.0292 13.4077 23.8684 13.467 23.7231C13.5262 23.5778 13.6317 23.4561 13.7671 23.3767C14.3657 23.0238 15.0054 22.7459 15.6718 22.5491C15.8537 22.4959 16.0492 22.5171 16.2154 22.6081C16.3816 22.6991 16.5049 22.8524 16.558 23.0343C16.6112 23.2162 16.59 23.4117 16.499 23.5779C16.408 23.7441 16.2547 23.8673 16.0728 23.9205C15.5196 24.0844 14.9886 24.3156 14.4918 24.6091C14.382 24.6735 14.2568 24.7077 14.1295 24.7072ZM45.4961 24.5167C45.38 24.5169 45.2655 24.4886 45.1628 24.4343C44.654 24.1663 44.1136 23.9632 43.5542 23.83C43.3698 23.7864 43.2103 23.6714 43.1107 23.5102C43.0112 23.349 42.9797 23.1549 43.0233 22.9705C43.0668 22.7861 43.1819 22.6266 43.3431 22.527C43.5043 22.4274 43.6984 22.396 43.8828 22.4395C44.5594 22.601 45.2131 22.8467 45.8285 23.171C45.9702 23.2451 46.083 23.3647 46.1486 23.5106C46.2143 23.6564 46.2291 23.8201 46.1907 23.9754C46.1523 24.1307 46.0628 24.2686 45.9367 24.367C45.8106 24.4654 45.6551 24.5186 45.4952 24.5181L45.4961 24.5167ZM39.9352 23.8353C39.7572 23.8348 39.5858 23.7679 39.4545 23.6477C39.3232 23.5275 39.2416 23.3626 39.2256 23.1853C39.2095 23.008 39.2603 22.8311 39.3678 22.6893C39.4754 22.5475 39.632 22.4509 39.8071 22.4186C40.472 22.2914 41.1468 22.2233 41.8237 22.2153C42.0132 22.2141 42.1953 22.2882 42.3302 22.4213C42.465 22.5544 42.5414 22.7356 42.5426 22.925C42.5438 23.1145 42.4697 23.2966 42.3365 23.4314C42.2034 23.5662 42.0222 23.6426 41.8328 23.6438C41.2396 23.6517 40.6483 23.7117 40.0657 23.8234C40.0226 23.8313 39.9789 23.8353 39.9352 23.8353ZM19.6428 23.77C19.6063 23.7701 19.5698 23.7674 19.5338 23.7619C18.9514 23.6679 18.3614 23.6301 17.7718 23.6491C17.5824 23.6559 17.398 23.5873 17.2592 23.4582C17.1203 23.3291 17.0385 23.1502 17.0316 22.9607C17.0247 22.7713 17.0934 22.5869 17.2225 22.4481C17.3516 22.3092 17.5305 22.2274 17.7199 22.2205C18.3997 22.1983 19.0799 22.2415 19.7514 22.3495C19.9288 22.3773 20.0894 22.4709 20.2009 22.6117C20.3125 22.7525 20.3669 22.9301 20.3533 23.1092C20.3397 23.2884 20.2592 23.4558 20.1277 23.5782C19.9962 23.7005 19.8234 23.7689 19.6437 23.7695L19.6428 23.77Z" fill="#58BA66"></path></svg>