<svg xmlns="http://www.w3.org/2000/svg" width="60" height="61" viewBox="0 0 60 61" fill="none"><path d="M27.4673 29.8801L28.0639 24.3136C28.0868 24.0975 28.189 23.8976 28.3508 23.7524C28.5126 23.6073 28.7224 23.5273 28.9397 23.528H31.0415C31.2588 23.5273 31.4687 23.6073 31.6304 23.7524C31.7922 23.8976 31.8944 24.0975 31.9173 24.3136L32.5181 29.9055C32.9086 29.9101 33.3 29.9111 33.6891 29.9222C33.7659 29.926 33.8422 29.9359 33.9174 29.9517L33.2958 24.1657C33.2367 23.6093 32.9736 23.0945 32.5573 22.7205C32.1411 22.3466 31.6011 22.14 31.0415 22.1406H28.9397C28.3801 22.14 27.8402 22.3466 27.4239 22.7205C27.0076 23.0945 26.7445 23.6093 26.6854 24.1657L26.0781 29.8316C26.5407 29.8505 27.0029 29.8718 27.4673 29.8801Z" fill="#58BA66"></path><path d="M55.7456 28.0617C49.3486 26.2234 40.5698 28.2831 37.0917 29.2541C35.9813 29.561 34.8518 29.7946 33.7107 29.9533C33.9658 30.0263 36.4225 30.5776 36.5616 30.8147C36.8634 30.7436 37.1652 30.6728 37.4647 30.5892C40.829 29.6501 49.307 27.6528 55.3625 29.3941C56.0362 29.5862 56.6296 29.9912 57.0541 30.5486C57.4785 31.1059 57.7111 31.7857 57.7171 32.4863V54.1519C57.7158 55.1934 57.3016 56.1918 56.5652 56.9282C55.8288 57.6646 54.8303 58.0789 53.7889 58.0801H6.20776C5.16632 58.0789 4.16788 57.6646 3.43146 56.9282C2.69505 56.1918 2.28079 55.1934 2.27957 54.1519V32.4863C2.28544 31.786 2.51777 31.1064 2.94184 30.549C3.36591 29.9917 3.95894 29.5865 4.63233 29.3941C6.45568 28.9081 8.33744 28.6764 10.2242 28.7055C15.1035 28.7055 20.1242 29.9177 22.5292 30.5892C23.1032 30.7496 23.6813 30.8864 24.2622 31.0084C24.8534 30.5843 25.4887 30.2254 26.157 29.938C25.0595 29.7789 23.9731 29.5504 22.9045 29.2541C19.4268 28.2836 10.6476 26.2234 4.2506 28.0617C3.28856 28.3382 2.44182 28.9185 1.8369 29.716C1.23199 30.5135 0.901397 31.4853 0.894531 32.4863V54.1519C0.896121 55.5609 1.45656 56.9118 2.4529 57.9082C3.44924 58.9045 4.80011 59.4649 6.20915 59.4665H53.7889C55.1979 59.4649 56.5488 58.9045 57.5451 57.9082C58.5415 56.9118 59.1019 55.5609 59.1035 54.1519V32.4863C59.0964 31.4851 58.7655 30.5131 58.1603 29.7156C57.555 28.9181 56.7079 28.3379 55.7456 28.0617Z" fill="#58BA66"></path><path d="M37.2754 30.2772C37.1462 30.1214 36.9843 29.9961 36.8011 29.9102C36.6179 29.8242 36.418 29.7797 36.2157 29.7799H23.7591C23.5562 29.7808 23.356 29.8261 23.1726 29.9128C22.9891 29.9994 22.8269 30.1253 22.6974 30.2815C22.568 30.4377 22.4743 30.6204 22.4232 30.8167C22.372 31.0131 22.3646 31.2182 22.4014 31.4178C22.474 31.8292 22.6232 32.2233 22.8413 32.5796C22.8109 32.6824 22.805 32.7909 22.8243 32.8964C22.8435 33.0019 22.8873 33.1014 22.952 33.1869C23.0168 33.2723 23.1008 33.3414 23.1971 33.3884C23.2935 33.4355 23.3996 33.4592 23.5068 33.4577H23.5382C23.7536 33.6832 23.993 33.9152 24.2582 34.1707C24.4796 34.3833 24.7231 34.6176 24.9907 34.8852C25.0924 35.0015 25.1736 35.1342 25.231 35.2776C25.0966 35.3513 24.9904 35.4676 24.9291 35.6082C24.8678 35.7487 24.8548 35.9057 24.8922 36.0544C24.9296 36.2031 25.0153 36.3352 25.1358 36.4301C25.2563 36.5249 25.4049 36.5771 25.5582 36.5785H25.6373C25.7639 37.1072 25.8827 37.7112 25.994 38.3305C25.8279 38.3681 25.6814 38.4655 25.5826 38.6042C25.4837 38.7429 25.4394 38.9131 25.458 39.0824C25.4766 39.2517 25.5569 39.4082 25.6836 39.5221C25.8102 39.636 25.9744 39.6992 26.1447 39.6998H26.2293L26.2944 40.0949C26.3698 40.5515 26.4469 41.0113 26.5255 41.4684C26.3694 41.5193 26.2364 41.6239 26.1503 41.7636C26.0641 41.9034 26.0303 42.0692 26.055 42.2315C26.0796 42.3938 26.161 42.5421 26.2848 42.65C26.4085 42.7579 26.5665 42.8183 26.7307 42.8206H26.7737C26.8407 43.1589 26.9123 43.4903 26.9835 43.8045C27.0491 44.085 27.1106 44.3725 27.1725 44.66C27.0032 44.6912 26.8516 44.7843 26.7471 44.9212C26.6427 45.058 26.5929 45.2289 26.6075 45.4004C26.6221 45.5719 26.7 45.7319 26.826 45.8492C26.9521 45.9665 27.1173 46.0326 27.2894 46.0348H27.4914C27.8939 47.5493 28.5159 48.8802 29.9869 48.8802C31.4579 48.8802 32.0795 47.5493 32.4825 46.0348H32.6849C32.857 46.0325 33.0221 45.9663 33.1481 45.849C33.2741 45.7317 33.3519 45.5717 33.3664 45.4002C33.3809 45.2287 33.3311 45.0579 33.2267 44.9211C33.1223 44.7842 32.9706 44.6912 32.8014 44.66C32.8633 44.3725 32.9252 44.085 32.9904 43.8045C33.0639 43.4903 33.1332 43.1575 33.2002 42.8206H33.2436C33.4078 42.8182 33.5657 42.7577 33.6894 42.6498C33.813 42.5419 33.8944 42.3935 33.9189 42.2313C33.9435 42.069 33.9097 41.9032 33.8235 41.7635C33.7374 41.6239 33.6044 41.5193 33.4484 41.4684C33.5504 40.8794 33.6491 40.2899 33.7446 39.6998H33.8292C33.9995 39.6992 34.1636 39.636 34.2903 39.5221C34.417 39.4082 34.4973 39.2517 34.5159 39.0824C34.5345 38.9131 34.4902 38.7429 34.3913 38.6042C34.2924 38.4655 34.146 38.3681 33.9798 38.3305C34.0912 37.7112 34.2109 37.1072 34.3366 36.5785H34.4156C34.569 36.5771 34.7175 36.5249 34.8381 36.4301C34.9586 36.3352 35.0442 36.2031 35.0816 36.0544C35.1191 35.9057 35.1061 35.7487 35.0448 35.6082C34.9835 35.4676 34.8773 35.3513 34.7428 35.2776C34.8002 35.1342 34.8815 35.0015 34.9831 34.8852C35.2248 34.6445 35.469 34.4063 35.7156 34.1707C35.9606 33.9381 36.2006 33.7003 36.4356 33.4577H36.4671C36.5742 33.4589 36.6802 33.4351 36.7765 33.388C36.8727 33.3409 36.9566 33.2719 37.0214 33.1865C37.0862 33.1011 37.13 33.0017 37.1494 32.8963C37.1688 32.7909 37.1632 32.6824 37.133 32.5796C37.351 32.2232 37.5 31.8291 37.5725 31.4178C37.6098 31.2175 37.6025 31.0115 37.5512 30.8143C37.4998 30.6172 37.4056 30.4338 37.2754 30.2772ZM29.9869 47.4924C29.5008 47.4924 29.1791 46.8607 28.93 46.0334H31.0438C30.7952 46.8607 30.4736 47.4924 29.9869 47.4924ZM31.6409 43.487C31.573 43.7773 31.5088 44.0749 31.445 44.372C31.4256 44.4645 31.4057 44.5569 31.3858 44.647H28.5885L28.5293 44.372C28.4656 44.0753 28.4018 43.7773 28.3339 43.487C28.2839 43.274 28.2368 43.0471 28.1897 42.8192H31.7851C31.7384 43.0471 31.6904 43.274 31.6409 43.487ZM32.312 39.868C32.2265 40.3901 32.1382 40.9117 32.0472 41.4328H27.9272C27.8347 40.9152 27.7483 40.3893 27.6624 39.868C27.6533 39.8114 27.6439 39.7549 27.6342 39.6984H32.3406C32.3309 39.7549 32.3211 39.8114 32.312 39.868ZM32.5754 38.312H27.3989C27.2989 37.7313 27.1859 37.1528 27.0602 36.5771H32.9141C32.7885 37.1529 32.6758 37.7313 32.5754 38.312ZM34.0034 33.9036C33.6753 34.2754 33.4329 34.7148 33.2936 35.1907H26.6812C26.5419 34.7148 26.2995 34.2754 25.9714 33.9036C25.8208 33.7534 25.669 33.6043 25.5162 33.4563H34.4591C34.3144 33.5963 34.1642 33.7428 34.0034 33.9036ZM35.8057 32.0698H24.1695C23.9621 31.806 23.8213 31.4961 23.7591 31.1664H36.2101C36.1506 31.496 36.0114 31.8062 35.8048 32.0698H35.8057ZM42.7919 4.48004C40.624 0.760727 35.583 0.377151 31.9617 2.15593C31.3707 2.44385 30.724 2.59911 30.0668 2.61084C29.4095 2.62258 28.7577 2.4905 28.1569 2.22387L27.8384 2.07367C24.2314 0.391015 19.3152 0.820806 17.1819 4.48004C15.4105 7.51861 15.6107 11.6848 17.7827 16.8622C17.9424 17.2453 18.212 17.5727 18.5574 17.8029C18.9028 18.0332 19.3086 18.1561 19.7237 18.1562H40.2465C40.6616 18.1562 41.0674 18.0333 41.4129 17.803C41.7583 17.5727 42.0278 17.2454 42.1875 16.8622C44.3595 11.6844 44.5633 7.51861 42.7919 4.48004ZM40.9124 16.3256C40.8577 16.4568 40.7654 16.5688 40.6471 16.6476C40.5289 16.7263 40.3899 16.7684 40.2478 16.7684H19.7274C19.5854 16.7684 19.4465 16.7264 19.3283 16.6476C19.2101 16.5688 19.1179 16.4568 19.0633 16.3256C17.0701 11.5711 16.8404 7.82224 18.3812 5.17787C19.4534 3.33624 21.5039 2.53073 23.6186 2.53073C24.8953 2.5323 26.1561 2.81389 27.3121 3.35565C27.3416 3.36997 27.4969 3.44484 27.5371 3.4661C28.0334 3.72732 28.4792 4.07472 28.8538 4.49205C29.104 4.80442 29.4138 5.06396 29.7652 5.25563C30.1165 5.4473 30.5025 5.56727 30.9006 5.60859C30.9237 5.60859 30.9468 5.61182 30.969 5.61182C31.147 5.61185 31.3183 5.54336 31.4472 5.42054C31.5762 5.29773 31.6529 5.13001 31.6615 4.95215C31.6701 4.7743 31.61 4.59995 31.4935 4.46524C31.377 4.33054 31.2132 4.24582 31.036 4.22863C30.783 4.21348 30.5398 4.12571 30.3354 3.97584C31.1127 3.93496 31.8741 3.73935 32.5749 3.40048C35.5613 1.9341 39.8587 2.19891 41.5964 5.17833C43.1344 7.82085 42.9052 11.5716 40.9124 16.3256Z" fill="#58BA66"></path></svg>